<svg xmlns="http://www.w3.org/2000/svg" viewBox="0 0 744 24" width="744" height="24"><g fill="none" stroke="#7383c6" stroke-width="2" stroke-linecap="round" stroke-miterlimit="10"><path d="M3.18 3.18h17.64M3.18 12h17.64M3.18 20.82h17.64"/></g><g fill="none" stroke="#7383c6" stroke-width="2" stroke-linecap="round" stroke-miterlimit="10"><path d="M27.18 3.18l17.64.044"/><path d="M27.18 12h17.64" stroke-dasharray="17.5963327378786,0.043667262121400846" stroke-dashoffset="17.596333"/><path d="M27.18 20.82l17.64-.044"/></g><g fill="none" stroke="#7383c6" stroke-width="2" stroke-linecap="round" stroke-miterlimit="10"><path d="M51.18 3.18l17.64.188"/><path d="M51.18 12h17.64" stroke-dasharray="17.452297084320787,0.18770291567921518" stroke-dashoffset="17.452297"/><path d="M51.18 20.82l17.64-.188"/></g><g fill="none" stroke="#7383c6" stroke-width="2" stroke-linecap="round" stroke-miterlimit="10"><path d="M75.18 3.18l17.64.456"/><path d="M75.18 12h17.64" stroke-dasharray="17.183776417315475,0.4562235826845246" stroke-dashoffset="17.183776"/><path d="M75.18 20.82l17.64-.456"/></g><g fill="none" stroke="#7383c6" stroke-width="2" stroke-linecap="round" stroke-miterlimit="10"><path d="M99.18 3.18l17.64.881"/><path d="M99.18 12h17.64" stroke-dasharray="16.759220565272543,0.8807794347274597" stroke-dashoffset="16.759221"/><path d="M99.18 20.82l17.64-.881"/></g><g fill="none" stroke="#7383c6" stroke-width="2" stroke-linecap="round" stroke-miterlimit="10"><path d="M123.18 3.18l17.64 1.501"/><path d="M123.18 12h17.64" stroke-dasharray="16.138739304478072,1.5012606955219292" stroke-dashoffset="16.138739"/><path d="M123.18 20.82l17.64-1.501"/></g><g fill="none" stroke="#7383c6" stroke-width="2" stroke-linecap="round" stroke-miterlimit="10"><path d="M147.18 3.18l17.64 2.363"/><path d="M147.18 12h17.64" stroke-dasharray="15.277178887657422,2.362821112342578" stroke-dashoffset="15.277179"/><path d="M147.18 20.82l17.64-2.363"/></g><g fill="none" stroke="#7383c6" stroke-width="2" stroke-linecap="round" stroke-miterlimit="10"><path d="M171.18 3.18l17.64 3.501"/><path d="M171.18 12h17.64" stroke-dasharray="14.139129270621853,3.5008707293781476" stroke-dashoffset="14.139129"/><path d="M171.18 20.82l17.64-3.501"/></g><g fill="none" stroke="#7383c6" stroke-width="2" stroke-linecap="round" stroke-miterlimit="10"><path d="M195.18 3.18l17.64 4.905"/><path d="M195.18 12h17.64" stroke-dasharray="12.735135602931592,4.904864397068409" stroke-dashoffset="12.735136"/><path d="M195.18 20.82l17.64-4.905"/></g><g fill="none" stroke="#7383c6" stroke-width="2" stroke-linecap="round" stroke-miterlimit="10"><path d="M219.18 3.18l17.64 6.479"/><path d="M219.18 12h17.64" stroke-dasharray="11.16090370583512,6.479096294164882" stroke-dashoffset="11.160904"/><path d="M219.18 20.82l17.64-6.479"/></g><g fill="none" stroke="#7383c6" stroke-width="2" stroke-linecap="round" stroke-miterlimit="10"><path d="M243.18 3.18l17.64 8.066"/><path d="M243.18 12h17.64" stroke-dasharray="9.574079309630386,8.065920690369614" stroke-dashoffset="9.574079"/><path d="M243.18 20.82l17.64-8.066"/></g><g fill="none" stroke="#7383c6" stroke-width="2" stroke-linecap="round" stroke-miterlimit="10"><path d="M267.18 3.18l17.64 9.534"/><path d="M267.18 12h17.64" stroke-dasharray="8.106366776764437,9.533633223235563" stroke-dashoffset="8.106367"/><path d="M267.18 20.82l17.64-9.534"/></g><g fill="none" stroke="#7383c6" stroke-width="2" stroke-linecap="round" stroke-miterlimit="10"><path d="M291.18 3.18l17.64 10.824"/><path d="M291.18 12h17.64" stroke-dasharray="6.816188671576296,10.823811328423703" stroke-dashoffset="6.816189"/><path d="M291.18 20.82l17.64-10.824"/></g><g fill="none" stroke="#7383c6" stroke-width="2" stroke-linecap="round" stroke-miterlimit="10"><path d="M315.18 3.18l17.64 11.932"/><path d="M315.18 12h17.64" stroke-dasharray="5.707955880880691,11.93204411911931" stroke-dashoffset="5.707956"/><path d="M315.18 20.82l17.64-11.932"/></g><g fill="none" stroke="#7383c6" stroke-width="2" stroke-linecap="round" stroke-miterlimit="10"><path d="M339.18 3.18l17.64 12.877"/><path d="M339.18 12h17.64" stroke-dasharray="4.763375188759867,12.876624811240132" stroke-dashoffset="4.763375"/><path d="M339.18 20.82l17.64-12.877"/></g><g fill="none" stroke="#7383c6" stroke-width="2" stroke-linecap="round" stroke-miterlimit="10"><path d="M363.18 3.18l17.64 13.681"/><path d="M363.18 12h17.64" stroke-dasharray="3.9590984719102718,13.680901528089729" stroke-dashoffset="3.959098"/><path d="M363.18 20.82l17.64-13.681"/></g><g fill="none" stroke="#7383c6" stroke-width="2" stroke-linecap="round" stroke-miterlimit="10"><path d="M387.18 3.18l17.64 14.367"/><path d="M387.18 12h17.64" stroke-dasharray="3.273420295945063,14.366579704054939" stroke-dashoffset="3.27342"/><path d="M387.18 20.82l17.64-14.367"/></g><g fill="none" stroke="#7383c6" stroke-width="2" stroke-linecap="round" stroke-miterlimit="10"><path d="M411.18 3.18l17.64 14.952"/><path d="M411.18 12h17.64" stroke-dasharray="2.688017199895748,14.951982800104252" stroke-dashoffset="2.688017"/><path d="M411.18 20.82l17.64-14.952"/></g><g fill="none" stroke="#7383c6" stroke-width="2" stroke-linecap="round" stroke-miterlimit="10"><path d="M435.18 3.18l17.64 15.452"/><path d="M435.18 12h17.64" stroke-dasharray="2.1879260772524276,15.452073922747573" stroke-dashoffset="2.187926"/><path d="M435.18 20.82l17.64-15.452"/></g><g fill="none" stroke="#7383c6" stroke-width="2" stroke-linecap="round" stroke-miterlimit="10"><path d="M459.18 3.18l17.64 15.879"/><path d="M459.18 12h17.64" stroke-dasharray="1.7610336580335249,15.878966341966477" stroke-dashoffset="1.761034"/><path d="M459.18 20.82l17.64-15.879"/></g><g fill="none" stroke="#7383c6" stroke-width="2" stroke-linecap="round" stroke-miterlimit="10"><path d="M483.18 3.18l17.64 16.242"/><path d="M483.18 12h17.64" stroke-dasharray="1.3975151803062393,16.24248481969376" stroke-dashoffset="1.397515"/><path d="M483.18 20.82l17.64-16.242"/></g><g fill="none" stroke="#7383c6" stroke-width="2" stroke-linecap="round" stroke-miterlimit="10"><path d="M507.18 3.18l17.64 16.551"/><path d="M507.18 12h17.64" stroke-dasharray="1.089349606920694,16.550650393079305" stroke-dashoffset="1.08935"/><path d="M507.18 20.82l17.64-16.551"/></g><g fill="none" stroke="#7383c6" stroke-width="2" stroke-linecap="round" stroke-miterlimit="10"><path d="M531.18 3.18l17.64 16.81"/><path d="M531.18 12h17.64" stroke-dasharray="0.8299326449032145,16.810067355096788" stroke-dashoffset=".829933"/><path d="M531.18 20.82l17.64-16.81"/></g><g fill="none" stroke="#7383c6" stroke-width="2" stroke-linecap="round" stroke-miterlimit="10"><path d="M555.18 3.18l17.64 17.026"/><path d="M555.18 12h17.64" stroke-dasharray="0.6137767939104094,17.02622320608959" stroke-dashoffset=".613777"/><path d="M555.18 20.82l17.64-17.026"/></g><g fill="none" stroke="#7383c6" stroke-width="2" stroke-linecap="round" stroke-miterlimit="10"><path d="M579.18 3.18l17.64 17.204"/><path d="M579.18 12h17.64" stroke-dasharray="0.4362809901391295,17.203719009860873" stroke-dashoffset=".436281"/><path d="M579.18 20.82l17.64-17.204"/></g><g fill="none" stroke="#7383c6" stroke-width="2" stroke-linecap="round" stroke-miterlimit="10"><path d="M603.18 3.18l17.64 17.346"/><path d="M603.18 12h17.64" stroke-dasharray="0.29355366697661966,17.34644633302338" stroke-dashoffset=".293554"/><path d="M603.18 20.82l17.64-17.346"/></g><g fill="none" stroke="#7383c6" stroke-width="2" stroke-linecap="round" stroke-miterlimit="10"><path d="M627.18 3.18l17.64 17.458"/><path d="M627.18 12h17.64" stroke-dasharray="0.1822761893204233,17.45772381067958" stroke-dashoffset=".182276"/><path d="M627.18 20.82l17.64-17.458"/></g><g fill="none" stroke="#7383c6" stroke-width="2" stroke-linecap="round" stroke-miterlimit="10"><path d="M651.18 3.18l17.64 17.54"/><path d="M651.18 12h17.64" stroke-dasharray="0.0995966970815034,17.5404033029185" stroke-dashoffset=".099597"/><path d="M651.18 20.82l17.64-17.54"/></g><g fill="none" stroke="#7383c6" stroke-width="2" stroke-linecap="round" stroke-miterlimit="10"><path d="M675.18 3.18l17.64 17.597"/><path d="M675.18 12h17.64" stroke-dasharray="0.04304690990682736,17.596953090093173" stroke-dashoffset=".043047"/><path d="M675.18 20.82l17.64-17.597"/></g><g fill="none" stroke="#7383c6" stroke-width="2" stroke-linecap="round" stroke-miterlimit="10"><path d="M699.18 3.18l17.64 17.63"/><path d="M699.18 12h17.64" stroke-dasharray="0.01047636679273547,17.629523633207263" stroke-dashoffset=".010476"/><path d="M699.18 20.82l17.64-17.63"/></g><g fill="none" stroke="#7383c6" stroke-width="2" stroke-linecap="round" stroke-miterlimit="10"><path d="M723.18 3.18l17.64 17.64"/><path d="M723.18 12h17.64" stroke-dasharray="0,17.64" stroke-dashoffset="17.64"/><path d="M723.18 20.82l17.64-17.64"/></g></svg>