<svg xmlns="http://www.w3.org/2000/svg" viewBox="0 0 744 24" width="744" height="24"><g fill="none" stroke-width="2" stroke-linecap="round" stroke-miterlimit="10"><path d="M3.18 20.82h17.64" stroke="#100420"/><path d="M3.18 3.18h17.64M3.18 12h17.64" stroke="#231f20"/></g><g fill="none" stroke-width="2" stroke-linecap="round" stroke-miterlimit="10"><path d="M27.18 20.82h17.64" stroke="#100420"/><path d="M27.18 3.18h17.64M27.18 12h17.64" stroke="#231f20"/></g><g fill="none" stroke-width="2" stroke-linecap="round" stroke-miterlimit="10"><path d="M51.18 20.82h17.64" stroke="#100420"/><path d="M51.18 3.18h17.64M51.18 12h17.64" stroke="#231f20"/></g><g fill="none" stroke-width="2" stroke-linecap="round" stroke-miterlimit="10"><path d="M75.18 20.82h17.64" stroke="#100420"/><path d="M75.18 3.18h17.64M75.18 12h17.64" stroke="#231f20"/></g><g fill="none" stroke-width="2" stroke-linecap="round" stroke-miterlimit="10"><path d="M99.18 20.82l17.64-.024" stroke="#100420"/><path d="M99.18 3.18l17.64.024" stroke="#231f20"/><path d="M99.18 12h17.64" stroke="#231f20" stroke-dasharray="17.530739567360758,0.10926043263924339" stroke-dashoffset="17.64"/></g><g fill="none" stroke-width="2" stroke-linecap="round" stroke-miterlimit="10"><path d="M123.18 20.82l17.64-.193" stroke="#100420"/><path d="M123.18 3.18l17.64.193" stroke="#231f20"/><path d="M123.18 12h17.64" stroke="#231f20" stroke-dasharray="16.829186254338275,0.8108137456617268" stroke-dashoffset="17.64"/></g><g fill="none" stroke-width="2" stroke-linecap="round" stroke-miterlimit="10"><path d="M147.18 20.82l17.64-.569" stroke="#100420"/><path d="M147.18 3.18l17.64.569" stroke="#231f20"/><path d="M147.18 12h17.64" stroke="#231f20" stroke-dasharray="15.478046540369041,2.161953459630959" stroke-dashoffset="17.64"/></g><g fill="none" stroke-width="2" stroke-linecap="round" stroke-miterlimit="10"><path d="M171.18 20.82l17.64-1.22" stroke="#100420"/><path d="M171.18 3.18l17.64 1.22" stroke="#231f20"/><path d="M171.18 12h17.64" stroke="#231f20" stroke-dasharray="13.477320425453065,4.162679574546936" stroke-dashoffset="17.64"/></g><g fill="none" stroke-width="2" stroke-linecap="round" stroke-miterlimit="10"><path d="M195.18 20.82l17.64-2.237" stroke="#100420"/><path d="M195.18 3.18l17.64 2.237" stroke="#231f20"/><path d="M195.18 12h17.64" stroke="#231f20" stroke-dasharray="10.82700790959034,6.81299209040966" stroke-dashoffset="17.64"/></g><g fill="none" stroke-width="2" stroke-linecap="round" stroke-miterlimit="10"><path d="M219.18 20.82l17.64-3.701" stroke="#100420"/><path d="M219.18 3.18l17.64 3.701" stroke="#231f20"/><path d="M219.18 12h17.64" stroke="#231f20" stroke-dasharray="7.5271089927808745,10.112891007219126" stroke-dashoffset="17.64"/></g><g fill="none" stroke-width="2" stroke-linecap="round" stroke-miterlimit="10"><path d="M243.18 20.82l17.64-5.579" stroke="#100420"/><path d="M243.18 3.18l17.64 5.579" stroke="#231f20"/><path d="M243.18 12h17.64" stroke="#231f20" stroke-dasharray="3.5776236750246606,14.06237632497534" stroke-dashoffset="17.64"/></g><g fill="none" stroke-width="2" stroke-linecap="round" stroke-miterlimit="10"><path d="M267.18 20.82l17.64-7.626" stroke="#100420"/><path d="M267.18 3.18l17.64 7.626" stroke="#231f20"/><path d="M267.18 12h17.64" stroke="#231f20" stroke-dasharray="0.5378744049001679,17.10212559509983" stroke-dashoffset="17.64"/></g><g fill="none" stroke-width="2" stroke-linecap="round" stroke-miterlimit="10"><path d="M291.18 20.82l17.64-9.534" stroke="#100420"/><path d="M291.18 3.18l17.64 9.534" stroke="#231f20"/><path d="M291.18 12h17.64" stroke="#231f20" stroke-dasharray="2.698323782112002,14.941676217887998" stroke-dashoffset="17.64"/></g><g fill="none" stroke-width="2" stroke-linecap="round" stroke-miterlimit="10"><path d="M315.18 20.82l17.64-11.154" stroke="#100420"/><path d="M315.18 3.18l17.64 11.154" stroke="#231f20"/><path d="M315.18 12h17.64" stroke="#231f20" stroke-dasharray="4.209186758377092,13.430813241622909" stroke-dashoffset="17.64"/></g><g fill="none" stroke-width="2" stroke-linecap="round" stroke-miterlimit="10"><path d="M339.18 20.82l17.64-12.484" stroke="#100420"/><path d="M339.18 3.18l17.64 12.484" stroke="#231f20"/><path d="M339.18 12h17.64" stroke="#231f20" stroke-dasharray="5.070463333695434,12.569536666304566" stroke-dashoffset="17.64"/></g><g fill="none" stroke-width="2" stroke-linecap="round" stroke-miterlimit="10"><path d="M363.18 20.82l17.64-13.565" stroke="#100420"/><path d="M363.18 3.18l17.64 13.565" stroke="#231f20"/><path d="M363.18 12h17.64" stroke="#231f20" stroke-dasharray="5.28215350806703,12.357846491932971" stroke-dashoffset="17.64"/></g><g fill="none" stroke-width="2" stroke-linecap="round" stroke-miterlimit="10"><path d="M387.18 20.82l17.64-14.447" stroke="#100420"/><path d="M387.18 3.18l17.64 14.447" stroke="#231f20"/><path d="M387.18 12h17.64" stroke="#231f20" stroke-dasharray="4.844257281491881,12.79574271850812" stroke-dashoffset="17.64"/></g><g fill="none" stroke-width="2" stroke-linecap="round" stroke-miterlimit="10"><path d="M411.18 20.82l17.64-15.167" stroke="#100420"/><path d="M411.18 3.18l17.64 15.167" stroke="#231f20"/><path d="M411.18 12h17.64" stroke="#231f20" stroke-dasharray="3.756774653969987,13.883225346030013" stroke-dashoffset="17.64"/></g><g fill="none" stroke-width="2" stroke-linecap="round" stroke-miterlimit="10"><path d="M435.18 20.82l17.64-15.755" stroke="#100420"/><path d="M435.18 3.18l17.64 15.755" stroke="#231f20"/><path d="M435.18 12h17.64" stroke="#231f20" stroke-dasharray="2.019705625501348,15.620294374498652" stroke-dashoffset="17.64"/></g><g fill="none" stroke-width="2" stroke-linecap="round" stroke-miterlimit="10"><path d="M459.18 20.82l17.64-16.234" stroke="#100420"/><path d="M459.18 3.18l17.64 16.234" stroke="#231f20"/><path d="M459.18 12h17.64" stroke="#231f20" stroke-dasharray="0.20342197598749798,17.4365780240125" stroke-dashoffset="17.64"/></g><g fill="none" stroke-width="2" stroke-linecap="round" stroke-miterlimit="10"><path d="M483.18 20.82l17.64-16.622" stroke="#100420"/><path d="M483.18 3.18l17.64 16.622" stroke="#231f20"/><path d="M483.18 12h17.64" stroke="#231f20" stroke-dasharray="1.3025180001484475,16.337481999851555" stroke-dashoffset="17.64"/></g><g fill="none" stroke-width="2" stroke-linecap="round" stroke-miterlimit="10"><path d="M507.18 20.82l17.64-16.932" stroke="#100420"/><path d="M507.18 3.18l17.64 16.932" stroke="#231f20"/><path d="M507.18 12h17.64" stroke="#231f20" stroke-dasharray="1.7520276233626502,15.88797237663735" stroke-dashoffset="17.64"/></g><g fill="none" stroke-width="2" stroke-linecap="round" stroke-miterlimit="10"><path d="M531.18 20.82l17.64-17.175" stroke="#100420"/><path d="M531.18 3.18l17.64 17.175" stroke="#231f20"/><path d="M531.18 12h17.64" stroke="#231f20" stroke-dasharray="1.551950845630106,16.088049154369894" stroke-dashoffset="17.64"/></g><g fill="none" stroke-width="2" stroke-linecap="round" stroke-miterlimit="10"><path d="M555.18 20.82l17.64-17.359" stroke="#100420"/><path d="M555.18 3.18l17.64 17.359" stroke="#231f20"/><path d="M555.18 12h17.64" stroke="#231f20" stroke-dasharray="0.7022876669508114,16.937712333049188" stroke-dashoffset="17.64"/></g><g fill="none" stroke-width="2" stroke-linecap="round" stroke-miterlimit="10"><path d="M579.18 20.82l17.64-17.493" stroke="#100420"/><path d="M579.18 3.18l17.64 17.493" stroke="#231f20"/><path d="M579.18 12h17.64" stroke="#231f20" stroke-dasharray="0.4364761490601657,17.203523850939835" stroke-dashoffset="17.64"/></g><g fill="none" stroke-width="2" stroke-linecap="round" stroke-miterlimit="10"><path d="M603.18 20.82l17.64-17.581" stroke="#100420"/><path d="M603.18 3.18l17.64 17.581" stroke="#231f20"/><path d="M603.18 12h17.64" stroke="#231f20" stroke-dasharray="0.8724802078719999,16.767519792128002" stroke-dashoffset="17.64"/></g><g fill="none" stroke-width="2" stroke-linecap="round" stroke-miterlimit="10"><path d="M627.18 20.82l17.64-17.628" stroke="#100420"/><path d="M627.18 3.18l17.64 17.628" stroke="#231f20"/><path d="M627.18 12h17.64" stroke="#231f20" stroke-dasharray="0.6588978657370892,16.981102134262912" stroke-dashoffset="17.64"/></g><g fill="none" stroke-width="2" stroke-linecap="round" stroke-miterlimit="10"><path d="M651.18 20.82l17.64-17.64" stroke="#100420"/><path d="M651.18 3.18l17.64 17.64" stroke="#231f20"/><path d="M651.18 12h17.64" stroke="#231f20" stroke-dasharray="0,17.64" stroke-dashoffset="17.64"/></g><g fill="none" stroke-width="2" stroke-linecap="round" stroke-miterlimit="10"><path d="M675.18 20.82l17.64-17.64" stroke="#100420"/><path d="M675.18 3.18l17.64 17.64" stroke="#231f20"/><path d="M675.18 12h17.64" stroke="#231f20" stroke-dasharray="0,17.64" stroke-dashoffset="17.64"/></g><g fill="none" stroke-width="2" stroke-linecap="round" stroke-miterlimit="10"><path d="M699.18 20.82l17.64-17.64" stroke="#100420"/><path d="M699.18 3.18l17.64 17.64" stroke="#231f20"/><path d="M699.18 12h17.64" stroke="#231f20" stroke-dasharray="0,17.64" stroke-dashoffset="17.64"/></g><g fill="none" stroke-width="2" stroke-linecap="round" stroke-miterlimit="10"><path d="M723.18 20.82l17.64-17.64" stroke="#100420"/><path d="M723.18 3.18l17.64 17.64" stroke="#231f20"/><path d="M723.18 12h17.64" stroke="#231f20" stroke-dasharray="0,17.64" stroke-dashoffset="17.64"/></g></svg>