<?xml version="1.0" encoding="utf-8"?>
<!-- Generator: Adobe Illustrator 24.0.3, SVG Export Plug-In . SVG Version: 6.00 Build 0)  -->
<svg version="1.1" id="OBJECTS" xmlns="http://www.w3.org/2000/svg" xmlns:xlink="http://www.w3.org/1999/xlink" x="0px" y="0px"
	 viewBox="0 0 500 500" style="enable-background:new 0 0 500 500;" xml:space="preserve">
<style type="text/css">
	.st0{opacity:0.56;clip-path:url(#SVGID_2_);fill:#CADAEF;}
	.st1{opacity:0.59;clip-path:url(#SVGID_2_);fill:#A4CAF4;}
	.st2{clip-path:url(#SVGID_2_);}
	.st3{fill:#A9C0E2;}
	.st4{fill:none;stroke:#FFFFFF;stroke-width:1.7374;stroke-linecap:round;stroke-linejoin:round;stroke-miterlimit:10;}
	.st5{fill:#6D9AE2;}
	.st6{fill:#6289D5;}
	.st7{fill:#1F2F61;}
	.st8{fill:none;stroke:#8F9DDB;stroke-width:5;stroke-miterlimit:10;}
	.st9{fill:none;stroke:#808CC9;stroke-width:5;stroke-miterlimit:10;}
	.st10{fill:#FFFFFF;}
	.st11{fill:#717AB9;}
	.st12{fill:#DADFFD;}
	.st13{fill:none;stroke:#312F25;stroke-width:3.1445;stroke-miterlimit:10;}
	.st14{fill:none;stroke:#B0B0B0;stroke-width:1.0702;stroke-linecap:round;stroke-linejoin:round;stroke-miterlimit:10;}
	.st15{clip-path:url(#XMLID_4_);fill:#5D779E;}
	.st16{clip-path:url(#XMLID_8_);fill:#717AB9;}
	.st17{clip-path:url(#XMLID_8_);fill:#C999AA;}
	.st18{clip-path:url(#XMLID_8_);fill:#DADFFD;}
	.st19{clip-path:url(#XMLID_8_);fill:none;stroke:#DADFFD;stroke-linecap:round;stroke-linejoin:round;stroke-miterlimit:10;}
	
		.st20{clip-path:url(#XMLID_8_);fill:none;stroke:#FFFFFF;stroke-width:1.091;stroke-linecap:round;stroke-linejoin:round;stroke-miterlimit:10;}
	
		.st21{clip-path:url(#XMLID_8_);fill:none;stroke:#EFD9CC;stroke-width:1.091;stroke-linecap:round;stroke-linejoin:round;stroke-miterlimit:10;}
	.st22{fill:#4361A7;}
	.st23{fill:#8DAEDE;}
	.st24{fill:#3A669E;}
	.st25{fill:none;stroke:#6289D5;stroke-width:3.422;stroke-miterlimit:10;}
	.st26{clip-path:url(#XMLID_12_);fill:#4361A7;}
	.st27{fill:#7AA5DE;}
	.st28{clip-path:url(#XMLID_14_);fill:#C999AA;}
	.st29{clip-path:url(#XMLID_14_);fill:#A57A92;}
	.st30{fill:none;stroke:#C17F9E;stroke-width:0.9318;stroke-linecap:round;stroke-linejoin:round;stroke-miterlimit:10;}
	.st31{fill:none;stroke:#C17F9E;stroke-width:0.9978;stroke-linecap:round;stroke-linejoin:round;stroke-miterlimit:10;}
	.st32{fill:#474747;}
	.st33{fill:#2A2A2A;}
	.st34{fill:#48517C;}
	.st35{fill:#BCC6CF;}
	.st36{fill:#EFD9CC;}
	.st37{fill:#6193CE;}
	.st38{fill:#232944;}
	.st39{fill:#C999AA;}
	.st40{fill:#6276A3;}
	.st41{fill:#FFDAC7;}
	.st42{opacity:0.75;clip-path:url(#XMLID_15_);fill:#232944;}
	.st43{opacity:0.75;fill:#232944;}
	.st44{clip-path:url(#XMLID_17_);fill:#1F2F61;}
	.st45{clip-path:url(#XMLID_18_);fill:none;stroke:#C17F9E;stroke-width:2.3;stroke-miterlimit:10;}
	
		.st46{clip-path:url(#XMLID_18_);fill:none;stroke:#FFFFFF;stroke-width:2.3829;stroke-linecap:round;stroke-linejoin:round;stroke-miterlimit:10;}
	.st47{fill:#808CC9;}
	.st48{fill:#5A6EB1;}
	.st49{fill:none;stroke:#C999AA;stroke-width:0.4681;stroke-linecap:round;stroke-linejoin:round;stroke-miterlimit:10;}
	.st50{fill:none;stroke:#5A6EB1;stroke-width:0.9119;stroke-linecap:round;stroke-miterlimit:10;}
	.st51{fill:#8694CE;}
	.st52{clip-path:url(#XMLID_19_);fill:#4A5A7B;}
	.st53{fill:#456AB9;}
	.st54{clip-path:url(#XMLID_20_);fill:#6671AA;}
	.st55{clip-path:url(#XMLID_20_);fill:#8694CE;}
</style>
<g>
	<defs>
		<path id="SVGID_1_" d="M201.33,429.12c98.03,32.5,238.5-3.19,243.36-131.55c3.55-93.67-39.51-240.11-136.67-259.38
			C217.56,20.25,110.93,119.17,60.83,193C-20.22,312.44,100.9,395.82,201.33,429.12z"/>
	</defs>
	<use xlink:href="#SVGID_1_"  style="overflow:visible;fill:#F5F9FC;"/>
	<clipPath id="SVGID_2_">
		<use xlink:href="#SVGID_1_"  style="overflow:visible;"/>
	</clipPath>
	<rect x="8.72" y="289.5" class="st0" width="453.66" height="75.65"/>
	<rect x="346.61" y="12.81" class="st1" width="104.86" height="352.33"/>
	<g class="st2">
		<rect x="8.72" y="363.07" class="st3" width="453.66" height="5.01"/>
		<line class="st4" x1="18.38" y1="432.9" x2="87.25" y2="381.14"/>
		<line class="st4" x1="452.73" y1="432.9" x2="393.98" y2="388.24"/>
		<line class="st4" x1="75.58" y1="420.05" x2="118.15" y2="380.32"/>
		<line class="st4" x1="109.62" y1="427.48" x2="156.38" y2="369.48"/>
		<line class="st4" x1="148.68" y1="432.9" x2="175.16" y2="383.96"/>
		<line class="st4" x1="192.12" y1="432.9" x2="197.05" y2="415.02"/>
		<line class="st4" x1="235.61" y1="427.76" x2="235.79" y2="410.56"/>
		<line class="st4" x1="278.99" y1="432.9" x2="274.24" y2="414.24"/>
		<line class="st4" x1="313.92" y1="416.54" x2="293.1" y2="376.5"/>
		<line class="st4" x1="365.86" y1="432.9" x2="340.17" y2="400.19"/>
		<line class="st4" x1="404.26" y1="428.11" x2="374.93" y2="400.19"/>
	</g>
	<g class="st2">
		<rect x="8.73" y="257.09" class="st5" width="453.65" height="45.47"/>
		<polygon class="st6" points="8.73,296.15 8.73,302.56 80.55,302.56 80.55,395.82 90.96,395.82 90.96,302.56 390.05,302.56 
			390.05,395.82 400.45,395.82 400.45,302.56 462.38,302.56 462.38,296.15 		"/>
		<path class="st7" d="M91.06,327.86v-25.3h-10.4v35.55C84.23,334.83,87.73,331.42,91.06,327.86z"/>
		<path class="st7" d="M400.45,327.86v-25.3h-10.4v35.55C393.62,334.83,397.12,331.42,400.45,327.86z"/>
	</g>
	<g class="st2">
		<path class="st8" d="M212.54,237.05v-80.12c0-37.74-30.6-68.34-68.34-68.34h0c-37.74,0-68.34,30.6-68.34,68.34v80.12H212.54z"/>
		<line class="st9" x1="143.22" y1="88.59" x2="143.22" y2="237.05"/>
		<line class="st9" x1="75.29" y1="140.24" x2="210.28" y2="140.24"/>
		<line class="st9" x1="211.16" y1="188.52" x2="75.29" y2="188.52"/>
	</g>
</g>
<g id="file">
	<rect x="347.15" y="192.32" class="st10" width="24.44" height="66.24"/>
	<path class="st7" d="M363.1,242.71c0,2.06-1.67,3.74-3.74,3.74c-2.06,0-3.74-1.67-3.74-3.74c0-2.06,1.67-3.74,3.74-3.74
		C361.43,238.97,363.1,240.65,363.1,242.71z"/>
	<rect x="371.59" y="192.32" class="st11" width="24.44" height="66.24"/>
	<path class="st7" d="M387.54,242.71c0,2.06-1.67,3.74-3.74,3.74c-2.06,0-3.74-1.67-3.74-3.74c0-2.06,1.67-3.74,3.74-3.74
		C385.87,238.97,387.54,240.65,387.54,242.71z"/>
	<rect x="396.02" y="192.32" class="st10" width="24.44" height="66.24"/>
	<path class="st7" d="M411.98,242.71c0,2.06-1.67,3.74-3.74,3.74s-3.74-1.67-3.74-3.74c0-2.06,1.67-3.74,3.74-3.74
		S411.98,240.65,411.98,242.71z"/>
	<rect x="420.46" y="192.32" class="st12" width="24.44" height="66.24"/>
	<path class="st7" d="M436.42,242.71c0,2.06-1.67,3.74-3.74,3.74c-2.06,0-3.74-1.67-3.74-3.74c0-2.06,1.67-3.74,3.74-3.74
		C434.74,238.97,436.42,240.65,436.42,242.71z"/>
	<line class="st13" x1="330.18" y1="258.56" x2="444.9" y2="258.56"/>
</g>
<g id="photo">
	<polygon class="st14" points="420.26,110.4 371.79,110.4 396.02,91.14 	"/>
	<g>
		<defs>
			<path id="XMLID_11_" d="M421.57,160.09h-51.09c-1.56,0-2.83-1.27-2.83-2.83v-46.19c0-1.56,1.27-2.83,2.83-2.83h51.09
				c1.56,0,2.83,1.27,2.83,2.83v46.19C424.4,158.82,423.13,160.09,421.57,160.09z"/>
		</defs>
		<use xlink:href="#XMLID_11_"  style="overflow:visible;fill:#6E88AF;"/>
		<clipPath id="XMLID_4_">
			<use xlink:href="#XMLID_11_"  style="overflow:visible;"/>
		</clipPath>
		<path class="st15" d="M371.79,166.16c0,0,11.92-22.7,55.56-57.93c43.64-35.22,3.82,57.24,3.82,57.24L371.79,166.16z"/>
	</g>
	<g>
		<defs>
			<path id="XMLID_10_" d="M376.06,149.96v-31.59c0-0.95,0.77-1.72,1.72-1.72h36.48c0.95,0,1.72,0.77,1.72,1.72v31.59
				c0,0.95-0.77,1.72-1.72,1.72h-36.48C376.83,151.68,376.06,150.91,376.06,149.96z"/>
		</defs>
		<use xlink:href="#XMLID_10_"  style="overflow:visible;fill:#FFFFFF;"/>
		<clipPath id="XMLID_8_">
			<use xlink:href="#XMLID_10_"  style="overflow:visible;"/>
		</clipPath>
		<path class="st16" d="M387.4,148.97c3.36-0.07,11.99-2.79,7.08-15.68c-3.26-8.55-18.97-19.27-15.96-10.64
			c4.47,12.77-1.22,12.03-1.31,18.08C377.16,144.68,380.37,149.11,387.4,148.97z"/>
		<path class="st17" d="M395.83,147.32c0.4-2.35,1.95-4.32,3.59-6.06c1.63-1.73,3.43-3.38,4.51-5.5c1.1-2.15,1.38-4.6,1.9-6.95
			c0.52-2.35,1.4-4.79,3.31-6.26c0.5-0.39,1.11-0.71,1.74-0.65c0.87,0.08,1.52,0.85,1.84,1.66c0.68,1.73,0.22,3.7-0.45,5.43
			c-0.67,1.73-1.57,3.42-1.79,5.26c-0.22,1.8,0.22,3.6,0.41,5.4c0.19,1.8,0.1,3.77-1.01,5.2c-0.96,1.23-2.51,1.85-3.63,2.94
			c-1.01,0.97-1.63,2.27-2.27,3.52c-0.72,1.39-1.55,2.81-2.91,3.59C396.64,157.43,395.34,150.2,395.83,147.32z"/>
		<path class="st18" d="M399.03,143.14c1.93-3.3,2.3-7.33,1.78-11.11c-0.53-3.79-1.89-7.4-3.24-10.98
			c-0.18-0.48-0.38-0.99-0.78-1.31c-0.99-0.81-2.62,0.09-2.95,1.33c-0.33,1.24,0.21,2.53,0.83,3.66c0.61,1.13,1.33,2.27,1.35,3.56
			c0.08,3.6-5.11,6.02-4.35,9.54c0.25,1.17,1.18,2.27,0.9,3.43c-0.27,1.12-1.57,1.8-1.72,2.94c-0.33,2.52,3.47,3,2.59,5.84
			c-0.67,2.17-3.36,2.27-0.28,3.66c1.21,0.54,3.8,0.31,4.48-0.96c0.57-1.05-0.51-3.16-0.51-4.31
			C397.13,146.26,397.97,144.94,399.03,143.14z"/>
		<path class="st19" d="M387.02,154.3c0.64-8.04,0-16.18-1.88-24.02"/>
		<path class="st20" d="M395.78,154.3c-1.64-12.48,4.33-15.96,2.45-23.8"/>
		<path class="st21" d="M401.21,154.61c-1.64-12.48,7.5-8.66,6.36-23.49"/>
	</g>
</g>
<g id="lamp">
	<path class="st22" d="M110.49,267.55c0,4.48-11.24,8.11-25.09,8.11s-25.09-3.63-25.09-8.11c0-2.51,0-3.42,0-3.42
		s19.01-4.68,25.09-4.68c6.11,0,25.09,4.68,25.09,4.68S110.49,265.05,110.49,267.55z"/>
	<ellipse class="st23" cx="85.4" cy="264.13" rx="25.09" ry="8.11"/>
	<ellipse class="st24" cx="85.75" cy="263.43" rx="9.67" ry="3.12"/>
	<polyline class="st25" points="82.5,263.26 40.58,196.67 103.03,133.97 	"/>
	<polyline class="st25" points="89.83,263.26 47.92,196.67 110.36,133.97 	"/>
	
		<ellipse transform="matrix(0.2323 -0.9727 0.9727 0.2323 -155.849 194.3825)" class="st6" cx="45.21" cy="195.91" rx="8.05" ry="8.05"/>
	<g>
		<path class="st22" d="M115.68,142.84L115.68,142.84c-1.77,1.77-4.64,1.77-6.42,0l-6.19-6.19c-1.77-1.77-1.77-4.64,0-6.42h0
			c1.77-1.77,4.64-1.77,6.42,0l6.19,6.19C117.46,138.19,117.46,141.07,115.68,142.84z"/>
		<g>
			<defs>
				<path id="XMLID_9_" d="M124.53,138.66l-6.79-6.79c-2.11-2.11-5.53-2.11-7.64,0l-5.38,5.38c-2.11,2.11-2.11,5.53,0,7.65
					l6.79,6.79h0c-5.9,5.9-5.9,15.47,0,21.37l4.91,4.91l34.39-34.39l-4.91-4.91C140,132.76,130.43,132.76,124.53,138.66
					L124.53,138.66z"/>
			</defs>
			<use xlink:href="#XMLID_9_"  style="overflow:visible;fill:#6289D5;"/>
			<clipPath id="XMLID_12_">
				<use xlink:href="#XMLID_9_"  style="overflow:visible;"/>
			</clipPath>
			<path class="st26" d="M135.56,143.52c-4.54-3.15-10.3-4.49-15.76-3.65c-3.25-5.86-10.15-9.47-16.82-8.81
				c0.51-2.24,2.08-4.13,3.97-5.43c1.89-1.3,4.11-2.05,6.33-2.63c8.38-2.18,17.35-2.02,25.64,0.46c8.29,2.48,15.88,7.27,21.69,13.69
				c3.24,3.59,6.02,7.9,6.4,12.72c0.5,6.41-3.86,12.88-9.99,14.81c-1.66,0.52-3.47,0.74-5.14,0.26c-4.18-1.19-6.63-6.37-7.98-10.13
				C142.26,150.27,139.57,146.3,135.56,143.52z"/>
		</g>
		
			<rect x="107.84" y="142.84" transform="matrix(0.7071 -0.7071 0.7071 0.7071 -67.6854 125.0044)" class="st10" width="18.42" height="2.73"/>
	</g>
	<path class="st27" d="M48.91,195.91c0,2.04-1.66,3.7-3.7,3.7s-3.7-1.66-3.7-3.7s1.66-3.7,3.7-3.7S48.91,193.87,48.91,195.91z"/>
	<rect x="79.14" y="262.02" class="st24" width="13.32" height="2.63"/>
</g>
<path id="bot" class="st12" d="M97.71,71.98c-0.84,0.64-1.08,1.81-0.55,2.73l3.39,5.88c0.53,0.92,1.66,1.3,2.64,0.89l4.36-1.84
	c1.06,0.81,2.19,1.52,3.44,2.05l0.58,4.63c0.13,1.05,1.02,1.84,2.08,1.84h6.79c1.06,0,1.95-0.79,2.08-1.84l0.58-4.63
	c1.25-0.52,2.38-1.24,3.44-2.05l4.36,1.84c0.97,0.41,2.11,0.03,2.63-0.89l3.4-5.88c0.53-0.92,0.29-2.09-0.55-2.73l-3.78-2.87
	c0.08-0.65,0.2-1.29,0.2-1.97c0-0.68-0.12-1.32-0.2-1.97l3.79-2.86c0.84-0.64,1.08-1.81,0.55-2.73l-3.39-5.88
	c-0.53-0.92-1.66-1.3-2.64-0.89l-4.36,1.84c-1.06-0.81-2.19-1.53-3.44-2.05l-0.58-4.63c-0.13-1.05-1.03-1.84-2.08-1.84h-6.79
	c-1.06,0-1.95,0.79-2.08,1.84l-0.58,4.63c-1.25,0.52-2.38,1.24-3.44,2.05l-4.36-1.84c-0.97-0.41-2.11-0.03-2.63,0.89l-3.4,5.88
	c-0.53,0.92-0.29,2.09,0.55,2.73l3.79,2.86c-0.08,0.65-0.2,1.29-0.2,1.97c0,0.68,0.12,1.32,0.2,1.97L97.71,71.98z M108.65,67.15
	c0-4.64,3.76-8.4,8.4-8.4c4.64,0,8.4,3.76,8.4,8.4c0,4.64-3.76,8.4-8.4,8.4C112.41,75.55,108.65,71.79,108.65,67.15z"/>
<g id="thread">
	<g>
		<defs>
			<circle id="XMLID_13_" cx="98.13" cy="428.7" r="13.98"/>
		</defs>
		<use xlink:href="#XMLID_13_"  style="overflow:visible;fill:#BA90A5;"/>
		<clipPath id="XMLID_14_">
			<use xlink:href="#XMLID_13_"  style="overflow:visible;"/>
		</clipPath>
		<ellipse class="st28" cx="91.76" cy="420.93" rx="14.05" ry="10.94"/>
		<path class="st29" d="M93.9,437.41c4.33,0.26,8.96,0.13,12.59-2.25c1.81-1.19,3.24-2.85,4.78-4.37c1.54-1.52,3.3-2.94,5.41-3.43
			c1.29-0.3,2.76-0.2,3.8,0.62c0.9,0.71,1.37,1.86,1.5,2.99c0.22,1.83-0.33,3.69-1.27,5.27c-0.94,1.58-2.24,2.92-3.63,4.13
			c-3,2.62-6.46,4.77-10.25,6c-3.79,1.23-7.92,1.53-11.79,0.57c-2.83-0.7-5.55-2.12-7.38-4.39c-0.89-1.1-1.54-2.38-2.05-3.7
			c-0.42-1.1-1.19-2.77-1.11-3.93c0.63-0.03,1.41,0.71,1.98,0.98c0.77,0.36,1.58,0.63,2.41,0.83
			C90.54,437.15,92.22,437.31,93.9,437.41z"/>
	</g>
	<g>
		<path class="st30" d="M89.54,440.97c0.5-6.17,3.36-11.98,7.26-16.78c2.65-3.26,6.02-6.25,10.16-6.99"/>
		<path class="st30" d="M87.46,438.48c0.5-5.85,3.34-11.36,7.21-15.92c2.63-3.1,5.98-5.93,10.08-6.63"/>
		<path class="st30" d="M91.61,415.33c4.92,3.75,8.27,9.29,10.22,15.17c1.32,3.99,2.02,8.45,0.41,12.32"/>
		<path class="st30" d="M99.94,413.94c3.81,4.7,5.72,10.72,6.23,16.73c0.34,4.08-0.01,8.46-2.42,11.75"/>
		<path class="st30" d="M110.9,435c-5.57,1.71-11.68,1.18-17.28-0.63c-3.8-1.23-7.63-3.21-9.76-6.66"/>
		<path class="st30" d="M110.3,421.43c-2.51,5.31-7.1,9.48-12.32,12.4c-3.54,1.98-7.67,3.47-11.76,2.69"/>
	</g>
	<path class="st31" d="M103.75,442.75c5.63-4.63,36.59-9.4,48.7-0.33c9.32,6.97-14.25,15.94-9.14,23.63
		c4.78,7.19,31.13-11.5,41.29-20.03c11.87-9.96,28.48-18.8,42.15-12.62c15.28,6.9,20.53,26.21,5.84,36.65
		c-5.59,3.98-14.88,7.68-21.84,6.63c-10.01-1.52-12.47-10.27-6-17.65c13.48-15.4,34.13-8.86,48.8-0.04
		c14.57,8.76,34.18,15.36,50.73,7.4c7.99-3.84,13.25-13.06,7.88-21.43c-3.11-4.84-19.12-8.47-19.42-0.87
		c-0.32,7.98,14.82,4.76,18.67,1.69c6.27-5.02,9.8-13.88,7.43-21.75"/>
</g>
<g>
	<path class="st7" d="M328.37,227.23H171.63c-2.19,0-3.96-1.77-3.96-3.96V144.1c0-2.19,1.77-3.96,3.96-3.96h156.74
		c2.19,0,3.96,1.77,3.96,3.96v79.17C332.33,225.46,330.56,227.23,328.37,227.23z"/>
	<path class="st23" d="M170.39,222.35v-77.32c0-1.2,0.97-2.17,2.17-2.17h154.88c1.2,0,2.17,0.97,2.17,2.17v77.32
		c0,1.2-0.97,2.17-2.17,2.17H172.56C171.36,224.51,170.39,223.54,170.39,222.35z"/>
	<rect x="227.81" y="227.23" class="st32" width="44.37" height="23.47"/>
	<rect x="212.27" y="250.7" class="st33" width="75.46" height="5.25"/>
	<path class="st34" d="M309.5,219.8c-6.82-15.06-8.58-28.35-7.89-44.79c-15.8-2.16-31.92,0.23-46.99,5.41
		c2.49,14.97-3.41,31.19-0.92,46.16c12.67-2.26,43.55-4.57,53.89-4.15C309.05,222.49,310.08,221.08,309.5,219.8z"/>
	<g>
		<rect x="175.34" y="148.55" class="st10" width="46.72" height="75.96"/>
		<rect x="187.99" y="152.89" class="st35" width="27.5" height="2.33"/>
		<rect x="187.99" y="157.51" class="st35" width="27.5" height="2.33"/>
		<rect x="187.99" y="162.13" class="st35" width="27.5" height="2.33"/>
		<rect x="187.99" y="166.75" class="st35" width="27.5" height="2.33"/>
		<rect x="184.35" y="176.39" class="st35" width="24.33" height="2.33"/>
		<rect x="189.93" y="181.01" class="st35" width="18.75" height="2.33"/>
		<path class="st35" d="M186.56,157.51c0,2.5-2.03,4.53-4.53,4.53c-2.5,0-4.53-2.03-4.53-4.53c0-2.5,2.03-4.53,4.53-4.53
			C184.53,152.98,186.56,155.01,186.56,157.51z"/>
		<rect x="187.99" y="191.55" class="st35" width="12.48" height="2.33"/>
		<rect x="187.99" y="196.17" class="st35" width="27.5" height="2.33"/>
		<rect x="187.99" y="200.79" class="st35" width="4.96" height="2.33"/>
		<path class="st35" d="M186.56,196.17c0,2.5-2.03,4.53-4.53,4.53c-2.5,0-4.53-2.03-4.53-4.53c0-2.5,2.03-4.53,4.53-4.53
			C184.53,191.64,186.56,193.67,186.56,196.17z"/>
		<path class="st35" d="M219.31,180.57c0,2.5-2.03,4.53-4.53,4.53c-2.5,0-4.53-2.03-4.53-4.53c0-2.5,2.03-4.53,4.53-4.53
			C217.28,176.04,219.31,178.07,219.31,180.57z"/>
		<rect x="184.35" y="213.14" class="st35" width="24.33" height="2.33"/>
		<path class="st35" d="M219.31,213.9c0,2.5-2.03,4.53-4.53,4.53c-2.5,0-4.53-2.03-4.53-4.53c0-2.5,2.03-4.53,4.53-4.53
			C217.28,209.37,219.31,211.4,219.31,213.9z"/>
	</g>
	<ellipse class="st36" cx="278.14" cy="179.06" rx="21.11" ry="22.9"/>
	<ellipse class="st36" cx="297.06" cy="181.22" rx="7.07" ry="7.67"/>
	<path class="st36" d="M267.97,181.22c0,4.23-3.16,7.67-7.07,7.67c-3.9,0-7.07-3.43-7.07-7.67c0-4.23,3.16-7.67,7.07-7.67
		C264.8,173.55,267.97,176.99,267.97,181.22z"/>
	<path class="st34" d="M277.95,153.13c-2.4,11.01-13.77,17.69-19.01,27.7c-1.6,3.05-2.58,6.79-1.05,9.86
		c-3.88-3.5-6.08-6.61-6.72-11.78c-0.64-5.17,0.21-10.44,1.76-15.42c1.68-5.39,4.46-10.84,9.38-13.68
		C267.23,146.98,275.45,148.07,277.95,153.13z"/>
	<path class="st34" d="M306.78,184.35c-16.59-3.97-30.55-17.43-35.14-33.86c4.09-3.05,9.5-4.06,14.55-3.34
		c5.05,0.72,9.79,3.5,12.87,7.57C305.13,162.73,303.82,174.75,306.78,184.35z"/>
	<rect x="274.24" y="197.34" class="st36" width="7.81" height="15.8"/>
	<path class="st37" d="M313.73,224.51c-4.19-9.78-18.53-16.99-35.59-16.99s-31.4,7.21-35.59,16.99H313.73z"/>
</g>
<rect x="180.13" y="267.13" class="st38" width="131.38" height="25.27"/>
<path class="st10" d="M281.57,383.3c2.33,1.47,3.85,4.4,4.24,7.08c0.39,2.68-0.17,5.16-0.89,7.47c-1.17,3.73-2.91,7.36-6.12,9.02
	c-3.21,1.66-8.2,0.69-10.96-3.11c-4.66-6.42-0.83-11.63,2.64-14.69C273.51,386.42,275.6,379.55,281.57,383.3z"/>
<path class="st10" d="M212.55,383.7c2.75,0.1,5.54,1.87,7.22,4c1.68,2.13,2.44,4.55,2.97,6.91c0.86,3.82,1.17,7.83-0.77,10.88
	c-1.94,3.05-6.75,4.71-11.04,2.81c-7.25-3.22-6.55-9.65-5.08-14.03C207.14,390.43,205.5,383.45,212.55,383.7z"/>
<g id="arms">
	<path class="st39" d="M223.47,210.77c-23.7,17.12-42.37,43.69-52.21,74.29c-0.67,2.07-1.29,4.37-0.63,6.44
		c1.47,4.59,7.15,3.8,11.05,2.06c16.33-7.3,30.43-42.93,45.38-53.56C227.62,221.41,227.32,228.81,223.47,210.77z"/>
	<path class="st39" d="M266.53,210.77c23.7,17.12,42.37,43.69,52.21,74.29c0.67,2.07,1.29,4.37,0.63,6.44
		c-1.47,4.59-7.15,3.8-11.05,2.06c-16.33-7.3-27.57-42.93-42.52-53.56C265.25,221.41,262.68,228.81,266.53,210.77z"/>
</g>
<g id="body">
	<path class="st40" d="M286.9,376.69c3.51,2.19,5.78,6.58,6.35,10.61c0.57,4.03-0.29,7.76-1.39,11.23
		c-1.79,5.62-4.44,11.08-9.29,13.6c-4.85,2.52-12.37,1.1-16.51-4.59c-6.98-9.61-1.17-17.47,4.09-22.09
		C274.73,381.42,277.93,371.09,286.9,376.69z"/>
	<path class="st40" d="M213.85,375.3c4.13,0.13,8.3,2.8,10.81,6c2.51,3.2,3.64,6.86,4.42,10.41c1.27,5.76,1.71,11.81-1.22,16.43
		c-2.93,4.61-10.15,7.15-16.58,4.3c-10.85-4.82-9.77-14.53-7.54-21.16C205.7,385.5,203.28,374.96,213.85,375.3z"/>
	<path class="st11" d="M222.57,396.52c1.64-2.75,2.19-6.38,2.63-9.87c2.17-17.07,2.98-34.46,2.42-51.77
		c-0.28-8.56-1.01-17.55-4.67-24.51c-3.35-6.38-9.06-10.32-14.81-10.23c-5.75,0.09-11.39,4.22-14.62,10.7
		c-4.18,8.38-4.17,19.34-3.28,29.4c1.42,16.08,4.37,34.36,10.13,48.72C204.09,398.2,216.49,406.72,222.57,396.52z"/>
	<path class="st11" d="M267.88,396.52c-1.64-2.75-2.19-6.38-2.63-9.87c-2.17-17.07-2.98-34.46-2.42-51.77
		c0.28-8.56,1.01-17.55,4.66-24.51c3.35-6.38,9.06-10.32,14.81-10.23s11.39,4.22,14.62,10.7c4.18,8.38,4.17,19.34,3.28,29.4
		c-1.42,16.08-4.37,34.36-10.13,48.72C286.36,398.2,273.96,406.72,267.88,396.52z"/>
	<path class="st39" d="M198.86,310.14c0.39,5.1,1.2,10.49,4.48,14.42c4.46,5.34,12.1,6.47,19.04,7.01
		c13.11,1.02,26.28,1.25,39.42,0.68c7.33-0.32,15.11-1.05,20.92-5.53c4.63-3.57,7.38-9.13,8.69-14.82
		c4.71-20.55-9.27-42.49-28.72-50.61c-16.23-6.77-34.85-5.02-50.8,1.64c-10.29,4.3-10.73,7.85-12.2,18.74
		C198.41,291.1,198.14,300.66,198.86,310.14z"/>
</g>
<g id="head">
	<rect x="236.36" y="172.51" class="st41" width="17.54" height="32.06"/>
	<g>
		<defs>
			<ellipse id="XMLID_5_" cx="245.74" cy="160.11" rx="24.8" ry="29.34"/>
		</defs>
		<use xlink:href="#XMLID_5_"  style="overflow:visible;fill:#1F2F61;"/>
		<clipPath id="XMLID_15_">
			<use xlink:href="#XMLID_5_"  style="overflow:visible;"/>
		</clipPath>
		<ellipse class="st42" cx="240.71" cy="147.09" rx="25.77" ry="18.49"/>
	</g>
	<path class="st38" d="M243.25,135.24c-1.23-0.63-2.55-1.09-4.01-1.24c-4.18-0.44-8.01,1.81-10.99,4.21
		c-6.12,4.95-10.73,11.13-13.32,17.86l10.84-12.18c2.48-2.79,5.53-5.84,9.76-6.03c2.45-0.11,4.6,0.76,6.61,1.97
		C241.87,138.26,242.3,136.54,243.25,135.24z"/>
	<path class="st38" d="M217.96,167.03c-1.82-5.78-0.83-12.75,2.49-17.43c1.45-2.06,3.28-3.66,4.88-5.55s3.02-4.21,3.29-6.9
		c-0.67,9.34-10.02,15.19-10.43,24.55c-0.16,3.76,1.25,7.45,3.32,10.24c1.72,2.32,4.15,4.5,6.39,5.68
		C223.46,176.24,219.61,172.28,217.96,167.03z"/>
	<path class="st43" d="M231.48,173.62c-1.82-8.15-0.83-17.97,2.49-24.58c1.45-2.9,3.28-5.16,4.88-7.82c1.6-2.66,3.02-5.93,3.29-9.73
		c-0.67,13.17-10.02,21.41-10.43,34.61c-0.16,5.31,1.25,10.5,3.32,14.43c1.72,3.27,4.15,6.34,6.39,8.01
		C236.99,186.6,233.14,181.02,231.48,173.62z"/>
	<path class="st43" d="M223.63,171.82c-4.82-17.8,7.84-27.94,9.44-30.6s3.02-5.93,3.29-9.73c-0.67,13.17-9.91,18.9-10.24,32.1
		c-0.45,18.41,13.06,23.29,15.3,24.95C234.38,187.06,225.62,179.14,223.63,171.82z"/>
	<path class="st43" d="M266.62,171.82c4.82-17.8-7.84-27.94-9.44-30.6c-1.6-2.66-3.02-5.93-3.29-9.73
		c0.67,13.17,9.91,18.9,10.24,32.1c0.45,18.41-13.06,23.29-15.3,24.95C255.88,187.06,264.64,179.14,266.62,171.82z"/>
	<path class="st38" d="M258.63,136.24c1.59,2.59,4.14,4.11,6.51,5.63c2.47,1.58,4.92,3.33,6.94,5.68c2.02,2.35,3.58,5.38,3.84,8.52
		c-1.1-9.76-5.52-12.86-11.21-16.72c-1.86-1.26-4.17-3.71-5.08-5.97c-1.8-4.46,1.77-9.11,2.76-12.81c-2.18-0.5-3.96,3.39-4.59,5.25
		C256.71,128.98,256.66,133.05,258.63,136.24z"/>
	<g>
		<defs>
			
				<ellipse id="XMLID_1_" transform="matrix(0.2318 -0.9728 0.9728 0.2318 64.0423 337.5471)" cx="245.74" cy="128.23" rx="20.74" ry="20.74"/>
		</defs>
		<use xlink:href="#XMLID_1_"  style="overflow:visible;fill:#232944;"/>
		<clipPath id="XMLID_17_">
			<use xlink:href="#XMLID_1_"  style="overflow:visible;"/>
		</clipPath>
		<ellipse class="st44" cx="239.09" cy="115.11" rx="23.02" ry="17.58"/>
	</g>
</g>
<path id="speech" class="st39" d="M353.18,76.64h-47.14c-13.25,0-24,10.75-24,24c0,12.14,9.02,22.17,20.72,23.77
	c0.93,0.13,1.7,0.82,1.97,1.72c0.24,0.79,0.38,1.64,0.38,2.51c0,1.66-0.48,3.2-1.29,4.52c0.42,0.06,0.85,0.11,1.29,0.11
	c4.29,0,9.53-3.13,10.54-7.22c0.2-0.82,0.94-1.4,1.79-1.4h35.74c13.25,0,24-10.75,24-24C377.18,87.39,366.43,76.64,353.18,76.64z
	 M318.6,104.39c-2.07,0-3.75-1.68-3.75-3.75c0-2.07,1.68-3.75,3.75-3.75s3.75,1.68,3.75,3.75
	C322.35,102.72,320.67,104.39,318.6,104.39z M330.23,104.39c-2.07,0-3.75-1.68-3.75-3.75c0-2.07,1.68-3.75,3.75-3.75
	c2.07,0,3.75,1.68,3.75,3.75C333.98,102.72,332.3,104.39,330.23,104.39z M341.86,104.39c-2.07,0-3.75-1.68-3.75-3.75
	c0-2.07,1.68-3.75,3.75-3.75s3.75,1.68,3.75,3.75C345.61,102.72,343.93,104.39,341.86,104.39z"/>
<g id="envelop">
	<defs>
		<path id="XMLID_16_" d="M203.09,104.96h-49.86c-1.33,0-2.41-1.08-2.41-2.41V69.92c0-1.33,1.08-2.41,2.41-2.41h49.86
			c1.33,0,2.41,1.08,2.41,2.41v32.63C205.5,103.88,204.42,104.96,203.09,104.96z"/>
	</defs>
	<use xlink:href="#XMLID_16_"  style="overflow:visible;fill:#C999AA;"/>
	<clipPath id="XMLID_18_">
		<use xlink:href="#XMLID_16_"  style="overflow:visible;"/>
	</clipPath>
	<line class="st45" x1="171.74" y1="88.57" x2="150.81" y2="101.92"/>
	<line class="st45" x1="205.5" y1="101.92" x2="184.43" y2="88.47"/>
	<line class="st46" x1="178.16" y1="93.99" x2="205.5" y2="69.92"/>
	<line class="st46" x1="150.81" y1="69.92" x2="178.16" y2="93.99"/>
</g>
<polygon id="big_x5F_plus" class="st12" points="406.58,53.95 396.09,53.95 396.09,43.47 390.55,43.47 390.55,53.95 380.07,53.95 
	380.07,59.49 390.55,59.49 390.55,69.98 396.09,69.98 396.09,59.49 406.58,59.49 "/>
<polygon id="small_x5F_plus" class="st12" points="83.55,119.92 77.65,119.92 77.65,114.02 74.52,114.02 74.52,119.92 68.62,119.92 
	68.62,123.04 74.52,123.04 74.52,128.95 77.65,128.95 77.65,123.04 83.55,123.04 "/>
<g id="dot1">
	<circle class="st12" cx="44.33" cy="75.55" r="3.75"/>
	<circle class="st12" cx="55.96" cy="75.55" r="3.75"/>
	<circle class="st12" cx="67.59" cy="75.55" r="3.75"/>
</g>
<g>
	<circle class="st12" cx="440.17" cy="163.29" r="3.75"/>
	<circle class="st12" cx="451.79" cy="163.29" r="3.75"/>
	<circle class="st12" cx="463.42" cy="163.29" r="3.75"/>
</g>
<path id="phone" class="st39" d="M259.31,27.47c-8.83-8.83-23.15-8.83-31.98,0c-8.83,8.83-8.83,23.15,0,31.98
	c8.83,8.83,23.15,8.83,31.98,0c4.24-4.24,6.62-10,6.62-15.99C265.93,37.47,263.55,31.71,259.31,27.47z M254.95,52.36
	C254.95,52.36,254.95,52.36,254.95,52.36L254.95,52.36l-1.15,1.13c-1.48,1.5-3.64,2.12-5.69,1.63c-2.07-0.55-4.03-1.43-5.82-2.61
	c-1.66-1.06-3.2-2.3-4.59-3.7c-1.28-1.27-2.43-2.66-3.43-4.16c-1.1-1.61-1.96-3.37-2.58-5.22c-0.7-2.17-0.12-4.56,1.51-6.16
	l1.34-1.34c0.37-0.37,0.98-0.38,1.35,0c0,0,0,0,0,0l4.24,4.24c0.37,0.37,0.38,0.98,0,1.35c0,0,0,0,0,0l-2.49,2.49
	c-0.71,0.71-0.8,1.83-0.21,2.64c0.9,1.23,1.9,2.4,2.98,3.48c1.21,1.21,2.52,2.31,3.92,3.29c0.81,0.56,1.91,0.47,2.61-0.23l2.4-2.44
	c0.37-0.37,0.98-0.38,1.35,0c0,0,0,0,0,0l4.24,4.25C255.33,51.37,255.33,51.98,254.95,52.36z"/>
<g id="cat">
	<path class="st47" d="M448.83,429.1h-13.39c-18.56,0-20.1-12.09-20.1-25.55c0-0.39-0.08-0.76-0.2-1.11c0.03-0.7,0.05-1.4,0.05-2.1
		c0-17.21-8.55-32.94-25.67-31.17c-13.85,1.43-22.8,17.7-31.07,27.83c-1.28,0.28-4.19,2.82-5.8,4.43c-2.17-0.72-4.53-1.13-7.01-1.13
		c-0.97,0-1.92,0.08-2.86,0.2c-1.48-1.63-5.91-5.63-6.88-5.07c-1.06,0.61-1.29,6.53-1.33,7.86c-4.84,2.9-8.01,7.64-8.01,13.02
		c0,1.46,0.25,2.87,0.69,4.21h-7.88c-2.25,0-4.08,1.83-4.08,4.08c0,2.25,1.83,4.08,4.08,4.08h14.18c2.18,1.5,4.77,2.59,7.6,3.16
		l-2.83,0.52c-2.22,0.41-3.69,2.53-3.28,4.75c0.41,2.22,2.53,3.69,4.75,3.28l21.5-3.93c2.22-0.41,3.69-2.53,3.28-4.75
		c-0.03-0.17-0.09-0.32-0.14-0.48l7.6,0.08c-0.3,0.71-0.41,1.51-0.26,2.32c0.41,2.22,2.53,3.69,4.75,3.28l21.5-3.93
		c2.04-0.37,3.42-2.2,3.32-4.21c3.78-1.99,6.78-4.99,9.01-8.69c2.77,8.35,9.37,16.03,25.09,16.03h13.39c1.93,0,3.5-1.57,3.5-3.5
		S450.76,429.1,448.83,429.1z"/>
	<path class="st48" d="M364.72,416.29c0-1.12-0.14-2.21-0.4-3.26c-3.47,0.08-6.23,1.19-6.23,2.55c0,1.4,2.89,2.53,6.49,2.56
		C364.67,417.54,364.72,416.92,364.72,416.29z"/>
	<path class="st48" d="M364.39,419.27c-3.5,0.07-6.29,1.18-6.29,2.56c0,1.08,1.72,2,4.16,2.38
		C363.27,422.69,364,421.03,364.39,419.27z"/>
	<path class="st48" d="M326.95,413.03c-0.26,1.05-0.4,2.14-0.4,3.26c0,0.63,0.05,1.24,0.14,1.85c3.59-0.03,6.49-1.16,6.49-2.56
		C333.18,414.22,330.43,413.11,326.95,413.03z"/>
	<path class="st48" d="M326.89,419.27c0.39,1.76,1.12,3.42,2.14,4.93c2.44-0.38,4.16-1.3,4.16-2.38
		C333.18,420.45,330.39,419.33,326.89,419.27z"/>
	<path class="st48" d="M347.7,400.85c0,1.94,0.61,3.52,1.36,3.52c0.75,0,1.36-1.58,1.36-3.52c0-0.01,0-0.03,0-0.04
		c-0.88-0.19-1.78-0.34-2.7-0.42C347.71,400.55,347.7,400.7,347.7,400.85z"/>
	<path class="st48" d="M340.68,400.88c0,1.94,0.61,3.52,1.36,3.52s1.36-1.57,1.36-3.52c0-0.16-0.01-0.3-0.02-0.45
		c-0.92,0.08-1.82,0.23-2.7,0.42C340.68,400.86,340.68,400.87,340.68,400.88z"/>
	<path class="st48" d="M344.3,400.36c-0.01,0.16-0.02,0.31-0.02,0.48c0,1.94,0.61,3.52,1.36,3.52c0.75,0,1.36-1.58,1.36-3.52
		c0-0.16-0.01-0.32-0.02-0.48c-0.44-0.03-0.89-0.06-1.34-0.06C345.19,400.3,344.74,400.33,344.3,400.36z"/>
	<path class="st10" d="M351.57,419.45c0,2.12-2.04,3.84-4.55,3.84s-4.55-1.72-4.55-3.84c0-2.12,2.04-3.84,4.55-3.84
		S351.57,417.33,351.57,419.45z"/>
	<g>
		<path class="st49" d="M347.02,419.45c0,0-0.8,2.49-2.77,1.38"/>
		<path class="st49" d="M347.03,419.45c0,0,0.77,2.51,2.77,1.38"/>
	</g>
	<path class="st39" d="M346.64,419.3l-1.12-1.61c-0.21-0.31,0.01-0.72,0.38-0.72h2.24c0.37,0,0.59,0.42,0.38,0.72l-1.12,1.61
		C347.22,419.56,346.83,419.56,346.64,419.3z"/>
	<path class="st50" d="M389.13,386.35c-3.05,0.36-5.89,1.66-8.09,3.46c-2.2,1.8-3.78,4.08-4.82,6.49c-1.84,4.28-2,9.05-0.45,13.41
		c1.56,4.36,4.82,8.29,9.17,11.04"/>
</g>
<g id="cup">
	<path class="st11" d="M159.29,249.03l-1.39-0.01l0.04-4.89c0-0.59-0.47-1.07-1.05-1.07l-24.08-0.18c-0.59,0-1.07,0.47-1.07,1.05
		l-0.24,32.56c0,0.59,0.47,1.07,1.05,1.07l24.08,0.18c0.59,0,1.07-0.47,1.07-1.05l0.05-6.12l1.39,0.01
		c3.14,0.02,5.72-2.52,5.75-5.66l0.07-10.14C164.97,251.63,162.43,249.05,159.29,249.03z M161.56,264.89
		c-0.01,1.32-1.09,2.38-2.41,2.37l-1.39-0.01l0.11-14.91l1.39,0.01c1.32,0.01,2.38,1.09,2.37,2.41L161.56,264.89z"/>
	
		<rect x="123.63" y="254.93" transform="matrix(7.392359e-03 -1 1 7.392359e-03 -120.3753 399.3505)" class="st51" width="34.68" height="10.75"/>
</g>
<g>
	<g>
		<defs>
			<path id="XMLID_6_" d="M295.01,331.6c0,6.62-22.06,19.81-49.27,19.81c-27.21,0-49.27-13.19-49.27-19.81
				c0-6.62,22.06-4.17,49.27-4.17C272.95,327.42,295.01,324.97,295.01,331.6z"/>
		</defs>
		<use xlink:href="#XMLID_6_"  style="overflow:visible;fill:#6276A3;"/>
		<clipPath id="XMLID_19_">
			<use xlink:href="#XMLID_6_"  style="overflow:visible;"/>
		</clipPath>
		<path class="st52" d="M227.69,342.57c13.46-1.58,25.2-9.47,36.82-16.43c11.63-6.97,24.7-13.41,38.14-11.62
			c6.47,0.86,13.4,4.54,14.7,10.93c1.51,7.42-5.07,13.83-11.15,18.35c-12.49,9.31-25.83,17.85-40.69,22.55
			c-14.85,4.7-31.46,5.28-45.71-1.02c-6.66-2.95-12.63-7.52-17.21-13.18c-3.13-3.87-10.51-14.18-7.64-19.25
			c4.95,1.4,9.65,6.1,14.98,7.83C215.64,342.6,221.73,343.27,227.69,342.57z"/>
	</g>
	<path id="XMLID_7_" class="st53" d="M245.13,404.17L245.13,404.17c-4.84,0-8.77-3.93-8.77-8.77v-75c0-4.84,3.93-8.77,8.77-8.77l0,0
		c4.84,0,8.77,3.93,8.77,8.77v75C253.91,400.25,249.98,404.17,245.13,404.17z"/>
	<path class="st7" d="M248.28,312.22v91.36c3.29-1.27,5.63-4.45,5.63-8.18v-75C253.91,316.67,251.57,313.48,248.28,312.22z"/>
	<path class="st53" d="M249.98,408.58c14.13,0.39,27.6,2.47,39.97,5.97c-9.31-10.07-21.98-16.99-36.22-19l0.18-0.62h-17.54
		l0.18,0.62c-14.24,2.01-26.91,8.93-36.22,19c12.37-3.5,25.85-5.58,39.97-5.97l4.84,16.82L249.98,408.58z"/>
	<circle class="st40" cx="200.32" cy="420" r="8.47"/>
	
		<ellipse transform="matrix(0.1642 -0.9864 0.9864 0.1642 -173.0498 637.9926)" class="st40" cx="289.95" cy="421.11" rx="8.47" ry="8.47"/>
	<circle class="st40" cx="245.13" cy="424.14" r="8.47"/>
	<g>
		<defs>
			<path id="XMLID_2_" d="M302.9,250.68c0,31.57-25.59,70.77-57.16,70.77s-57.16-39.2-57.16-70.77s25.59-57.16,57.16-57.16
				S302.9,219.11,302.9,250.68z"/>
		</defs>
		<use xlink:href="#XMLID_2_"  style="overflow:visible;fill:#808CC9;"/>
		<clipPath id="XMLID_20_">
			<use xlink:href="#XMLID_2_"  style="overflow:visible;"/>
		</clipPath>
		<path class="st54" d="M246.33,162.1c14.05,16.52,24.66,36.15,29.5,57.29s3.74,43.8-4.36,63.92
			c-11.69,29.04-36.67,50.85-50.32,79.02c17.69-0.14,35.07-6.05,50.08-15.4c15.01-9.36,27.74-22.07,38.46-36.13
			c14.8-19.42,26.17-42.44,26.99-66.85c0.83-24.41-10.57-50.12-32.07-61.71c-19.93-10.75-44.51-8.1-65.71-16.06
			c4.37-4.22,7.41-5.67,12.88-8.33C250.13,159.23,247.97,160.71,246.33,162.1z"/>
		<path class="st55" d="M236.08,243.01c-5.04,34.55-22.23,67.07-22.7,101.98c-7.13,0.47-14.15-2.58-19.71-7.07
			c-5.56-4.49-9.83-10.35-13.8-16.29c-13.56-20.32-24.56-43.73-23.34-68.13c0.97-19.24,9.64-37.61,22.22-52.19
			c10.31-11.95,26.23-26.49,41.54-31.55c14.58-4.82,16.35,32.68,16.97,41.91C237.98,222.12,237.59,232.65,236.08,243.01z"/>
	</g>
</g>
</svg>
