<?xml version="1.0" encoding="utf-8"?>
<!-- Generator: Adobe Illustrator 24.0.3, SVG Export Plug-In . SVG Version: 6.00 Build 0)  -->
<svg version="1.1" xmlns="http://www.w3.org/2000/svg" xmlns:xlink="http://www.w3.org/1999/xlink" x="0px" y="0px"
	 viewBox="0 0 403.76 365.75" style="enable-background:new 0 0 403.76 365.75;" xml:space="preserve">
<style type="text/css">
	.st0{opacity:0.6;fill:#9BAEEA;}
	.st1{fill:#E9F6FF;}
	.st2{fill:#FFFFFF;}
	.st3{fill:#C1CBEA;}
	.st4{opacity:0.6;}
	.st5{fill:#CAD3F9;}
	.st6{fill:#D0DAFC;}
	.st7{fill:#E0E0E0;}
	.st8{fill:#9DC1E8;}
	.st9{fill:#EEF7FF;}
	.st10{fill:#0E2B63;}
	.st11{fill:#FCC1BE;}
	.st12{opacity:0.2;}
	.st13{fill:#407BFF;}
	.st14{fill:#93A3E5;}
	.st15{opacity:0.6;fill:#93A3E5;}
	.st16{opacity:0.2;fill:#93A3E5;}
	.st17{fill:#C17F9E;}
	.st18{fill:#6289D5;}
	.st19{fill:#456AB9;}
	.st20{fill:#FFC3BD;}
	.st21{fill:#C999AA;}
	.st22{opacity:0.4;fill:#C999AA;}
	.st23{opacity:0.3;}
	.st24{opacity:0.4;}
</style>
<g id="Background_Complete">
	<g>
		<g>
			<g>
				<rect x="24.08" y="24.66" class="st0" width="357.78" height="148.89"/>
				
					<rect x="135.52" y="-72.79" transform="matrix(-1.836970e-16 1 -1 -1.836970e-16 302.0665 -103.8624)" class="st1" width="134.89" height="343.78"/>
				<polygon class="st2" points="76.33,166.55 111.6,31.66 137.6,31.66 102.33,166.55 				"/>
				<polygon class="st2" points="108.33,166.55 143.6,31.66 155.23,31.66 119.96,166.55 				"/>
				<polygon class="st2" points="165.24,166.55 200.5,31.66 226.5,31.66 191.24,166.55 				"/>
				<polygon class="st2" points="230.79,166.55 266.06,31.66 277.69,31.66 242.43,166.55 				"/>
				
					<rect x="54.84" y="98.21" transform="matrix(-1.836970e-16 1 -1 -1.836970e-16 221.3861 -23.182)" class="st3" width="134.89" height="1.78"/>
				
					<rect x="-35.48" y="98.21" transform="matrix(-1.836970e-16 1 -1 -1.836970e-16 131.0666 67.1375)" class="st3" width="134.89" height="1.78"/>
				
					<rect x="50.45" y="95.6" transform="matrix(-1.836970e-16 1 -1 -1.836970e-16 216.9972 -18.7931)" class="st0" width="134.89" height="7"/>
				<g>
					
						<rect x="141.63" y="98.21" transform="matrix(-1.836970e-16 1 -1 -1.836970e-16 308.178 -109.9738)" class="st3" width="134.89" height="1.78"/>
					
						<rect x="137.24" y="95.6" transform="matrix(-1.836970e-16 1 -1 -1.836970e-16 303.7891 -105.5849)" class="st0" width="134.89" height="7"/>
				</g>
				<g>
					
						<rect x="228.46" y="98.21" transform="matrix(-1.836970e-16 1 -1 -1.836970e-16 395.0112 -196.807)" class="st3" width="134.89" height="1.78"/>
					
						<rect x="224.08" y="95.6" transform="matrix(-1.836970e-16 1 -1 -1.836970e-16 390.6223 -192.4182)" class="st0" width="134.89" height="7"/>
				</g>
				
					<rect x="308.3" y="98.21" transform="matrix(-1.836970e-16 1 -1 -1.836970e-16 481.8441 -283.6401)" class="st3" width="148.89" height="1.78"/>
			</g>
			<g>
				<path class="st0" d="M387.63,14.44H18.3c-0.86,0-1.56-0.7-1.56-1.56l0,0c0-0.86,0.7-1.56,1.56-1.56h369.33
					c0.86,0,1.56,0.7,1.56,1.56l0,0C389.19,13.74,388.49,14.44,387.63,14.44z"/>
				<g class="st4">
					<rect x="19.74" y="8.32" class="st5" width="75.56" height="271.67"/>
					<polygon class="st0" points="60.69,282.21 54.35,282.21 56.13,10.55 58.96,10.55 					"/>
					<polygon class="st0" points="39.71,282.21 36.66,282.21 37.52,10.55 38.88,10.55 					"/>
					<polygon class="st0" points="81.71,282.21 78.66,282.21 79.52,10.55 80.88,10.55 					"/>
				</g>
				<g class="st4">
					<rect x="309.73" y="8.32" class="st5" width="75.56" height="271.67"/>
					<polygon class="st0" points="339.34,282.21 333,282.21 334.78,10.55 337.61,10.55 					"/>
					<polygon class="st0" points="325.36,282.21 322.31,282.21 323.17,10.55 324.53,10.55 					"/>
					<polygon class="st0" points="357.7,282.21 354.64,282.21 355.5,10.55 356.87,10.55 					"/>
					<polygon class="st0" points="373.25,282.21 370.2,282.21 371.06,10.55 372.42,10.55 					"/>
				</g>
			</g>
		</g>
		<g>
			<g>
				<g>
					
						<rect x="278.18" y="227.64" transform="matrix(-1 -1.224647e-16 1.224647e-16 -1 570.5626 536.6646)" class="st3" width="14.2" height="81.38"/>
					
						<rect x="113.55" y="227.64" transform="matrix(-1 -1.224647e-16 1.224647e-16 -1 397.1854 536.6646)" class="st5" width="170.09" height="81.38"/>
					<polygon class="st3" points="279.82,309.02 274.7,309.02 120.9,309.02 120.9,310.72 274.7,310.72 279.82,310.72 285.04,310.72 
						285.04,309.02 					"/>
					
						<rect x="118.4" y="232.73" transform="matrix(-1 -1.224647e-16 1.224647e-16 -1 397.1855 498.304)" class="st6" width="160.39" height="32.84"/>
					
						<rect x="118.4" y="270.88" transform="matrix(-1 -1.224647e-16 1.224647e-16 -1 397.1855 574.5906)" class="st6" width="160.39" height="32.84"/>
					<path class="st7" d="M142.71,249.15c0,1.99-1.62,3.61-3.61,3.61s-3.61-1.62-3.61-3.61c0-1.99,1.62-3.61,3.61-3.61
						S142.71,247.16,142.71,249.15z"/>
					<path class="st7" d="M261.69,249.15c0,1.99-1.62,3.61-3.61,3.61c-1.99,0-3.61-1.62-3.61-3.61c0-1.99,1.62-3.61,3.61-3.61
						C260.08,245.54,261.69,247.16,261.69,249.15z"/>
					<circle class="st7" cx="139.1" cy="287.3" r="3.61"/>
					<path class="st7" d="M261.69,287.3c0,1.99-1.62,3.61-3.61,3.61c-1.99,0-3.61-1.62-3.61-3.61s1.62-3.61,3.61-3.61
						C260.08,283.69,261.69,285.3,261.69,287.3z"/>
					<path class="st7" d="M202.2,249.15c0,1.99-1.62,3.61-3.61,3.61s-3.61-1.62-3.61-3.61c0-1.99,1.62-3.61,3.61-3.61
						S202.2,247.16,202.2,249.15z"/>
					<circle class="st7" cx="198.59" cy="287.3" r="3.61"/>
				</g>
			</g>
			<path class="st8" d="M273.13,213.82c0,7.63-6.19,13.82-13.82,13.82c-7.63,0-13.82-6.19-13.82-13.82H273.13z"/>
			<path class="st8" d="M163.85,211.35c0,9-7.29,16.29-16.29,16.29c-9,0-16.29-7.29-16.29-16.29H163.85z"/>
			<path class="st8" d="M233.88,218.05c0,5.3-4.29,9.59-9.59,9.59s-9.59-4.29-9.59-9.59H233.88z"/>
		</g>
	</g>
</g>
<g id="Shadow_1_">
	<ellipse id="_x3C_Path_x3E__126_" class="st9" cx="202.96" cy="344.56" rx="193.89" ry="11.32"/>
</g>
<g id="Character_2">
	<path class="st10" d="M301.11,43.69c-2.13-2.13-6.23-10.2-2.3-13.95c3.93-3.75,7.43-0.35,7.7,1.49
		C306.79,33.07,306.06,48.63,301.11,43.69z"/>
	<polygon class="st11" points="300.21,333.98 291.29,334.05 288.86,313.42 297.78,313.34 	"/>
	<path class="st10" d="M291.27,333.02l9.74-0.09c0.36,0,0.7,0.25,0.81,0.6l2.36,7.91c0.24,0.82-0.32,1.6-1.16,1.6
		c-3.52-0.03-8.61-0.19-13.03-0.15c-5.16,0.05-7.47,0.37-13.52,0.42c-3.66,0.03-4.96-3.66-3.45-4.01c6.86-1.59,10.41-1.8,16.17-5.57
		C289.8,333.33,290.5,333.03,291.27,333.02z"/>
	<g>
		<polygon class="st12" points="288.86,313.42 290.11,324.06 299.04,323.98 297.78,313.34 		"/>
	</g>
	<path class="st13" d="M287.59,334.61c1,0,2.09-0.18,2.86-0.34c0.09-0.02,0.16-0.09,0.17-0.18c0.01-0.09-0.04-0.18-0.12-0.22
		c-0.42-0.21-4.17-2.01-5.2-1.37c-0.2,0.12-0.3,0.32-0.3,0.57c0,0.42,0.16,0.76,0.47,1.02
		C285.95,334.48,286.74,334.61,287.59,334.61z M289.72,333.98c-1.93,0.34-3.4,0.27-3.99-0.21c-0.21-0.17-0.32-0.4-0.32-0.69
		c0-0.13,0.05-0.18,0.1-0.21C286.07,332.52,288.19,333.28,289.72,333.98z"/>
	<path class="st13" d="M290.4,334.27c0.05,0,0.09-0.02,0.13-0.05c0.06-0.05,0.09-0.12,0.08-0.2c-0.03-0.16-0.7-4-2.83-3.76
		c-0.56,0.06-0.72,0.35-0.75,0.57c-0.15,1,2.14,2.93,3.29,3.42C290.34,334.27,290.37,334.27,290.4,334.27z M287.96,330.68
		c1.28,0,1.92,2.08,2.14,3c-1.18-0.67-2.74-2.18-2.65-2.78c0.01-0.04,0.03-0.17,0.38-0.21
		C287.88,330.68,287.92,330.68,287.96,330.68z"/>
	<path class="st12" d="M287.38,89.24c0,0-5.79,8.28-7.84,17.08c2.3-0.99,5.27-2.43,8.2-4.32L287.38,89.24z"/>
	<g>
		<path class="st11" d="M293.91,88.75l-0.92,0.96l-0.86,0.85c-0.57,0.56-1.16,1.08-1.75,1.61c-1.18,1.05-2.38,2.06-3.6,3.04
			c-2.46,1.95-5.05,3.75-7.8,5.38c-1.37,0.81-2.78,1.58-4.22,2.31c-1.45,0.72-2.94,1.37-4.46,1.98c-3.06,1.2-6.28,2.14-9.68,2.64
			l-0.74,0.11c-0.46,0.06-0.91,0.1-1.44,0.09c-1,0-2.18-0.2-3.26-0.64c-1.1-0.43-2.04-1.09-2.77-1.77c-0.76-0.7-1.23-1.38-1.66-2.06
			c-0.78-1.31-1.15-2.46-1.43-3.5c-0.27-1.04-0.42-1.99-0.53-2.9c-0.21-1.82-0.21-3.47-0.15-5.09c0.07-1.61,0.2-3.17,0.38-4.71
			c0.38-3.06,0.92-6.03,1.58-8.95c0.67-2.93,1.42-5.77,2.38-8.67l6.57,1.29c-0.24,5.63-0.51,11.38-0.33,16.82
			c0.07,2.69,0.32,5.41,0.8,7.53c0.12,0.52,0.27,0.99,0.41,1.33c0.14,0.34,0.3,0.55,0.3,0.46c-0.02-0.08-0.07-0.17-0.27-0.4
			c-0.19-0.2-0.53-0.44-0.94-0.63c-0.4-0.18-0.85-0.25-1.13-0.27c-0.17,0-0.26-0.01-0.36,0c-0.11,0.02,0.06-0.02,0.11-0.03
			l0.22-0.06c2.3-0.56,4.6-1.45,6.88-2.5c2.27-1.09,4.5-2.36,6.68-3.78c2.17-1.44,4.31-2.99,6.37-4.65
			c1.04-0.82,2.05-1.68,3.04-2.55l1.45-1.32l0.71-0.65l0.61-0.58L293.91,88.75z"/>
		<path class="st11" d="M259.22,73.7l3.36-7.59l-9.5-2.78c0,0-1.63,3.63-0.71,9.86L259.22,73.7z"/>
		<polygon class="st11" points="263.59,57.21 255.33,58.19 253.08,63.32 262.58,66.11 		"/>
	</g>
	<g>
		<g>
			<path class="st14" d="M287.45,153.58c0,0-6.15,51.46-6.82,78.97c-0.7,28.61,4.91,86.32,4.91,86.32l16.11-0.34
				c0,0,1.94-61.78,4.27-90.09c2.55-30.86,8.95-75.45,8.95-75.45L287.45,153.58z"/>
			<path class="st15" d="M287.45,153.58c0,0-6.15,51.46-6.82,78.97c-0.7,28.61,4.91,86.32,4.91,86.32l16.11-0.34
				c0,0,1.94-61.78,4.27-90.09c2.55-30.86,8.95-75.45,8.95-75.45L287.45,153.58z"/>
		</g>
		<path class="st16" d="M306.63,168.15c-7.2,15.87-5.27,51.32-1.18,66.52c0.15-2.21,0.31-4.3,0.47-6.23
			c1.67-20.34,5.02-46.63,7.11-62.2C311.07,163.4,308.88,163.18,306.63,168.15z"/>
		<g>
			<polygon class="st14" points="303.62,319.26 284.68,319.64 283.29,313.34 303.39,313.3 			"/>
		</g>
	</g>
	<polygon class="st11" points="340.01,333.98 331.09,334.05 328.65,313.42 337.57,313.34 	"/>
	<path class="st10" d="M331.07,333.02l9.74-0.09c0.36,0,0.7,0.25,0.81,0.6l2.36,7.91c0.24,0.82-0.32,1.6-1.16,1.6
		c-3.52-0.03-8.61-0.19-13.03-0.15c-5.16,0.05-7.47,0.37-13.52,0.42c-3.66,0.03-4.96-3.66-3.45-4.01c6.86-1.59,10.41-1.8,16.17-5.57
		C329.6,333.33,330.3,333.03,331.07,333.02z"/>
	<g>
		<polygon class="st12" points="328.66,313.42 329.91,324.06 338.83,323.98 337.58,313.34 		"/>
	</g>
	<path class="st13" d="M327.39,334.61c1,0,2.09-0.18,2.86-0.34c0.09-0.02,0.16-0.09,0.17-0.18c0.01-0.09-0.04-0.18-0.12-0.22
		c-0.42-0.21-4.17-2.01-5.2-1.37c-0.2,0.12-0.3,0.32-0.3,0.57c0,0.42,0.16,0.76,0.47,1.02
		C325.75,334.48,326.53,334.61,327.39,334.61z M329.52,333.98c-1.93,0.34-3.4,0.27-3.99-0.21c-0.21-0.17-0.32-0.4-0.32-0.69
		c0-0.13,0.05-0.18,0.1-0.21C325.87,332.52,327.99,333.28,329.52,333.98z"/>
	<path class="st13" d="M330.2,334.27c0.05,0,0.09-0.02,0.13-0.05c0.06-0.05,0.09-0.12,0.08-0.2c-0.03-0.16-0.7-4-2.83-3.76
		c-0.56,0.06-0.72,0.35-0.75,0.57c-0.15,1,2.14,2.93,3.29,3.42C330.14,334.27,330.17,334.27,330.2,334.27z M327.76,330.68
		c1.28,0,1.92,2.08,2.14,3c-1.18-0.67-2.74-2.18-2.65-2.78c0.01-0.04,0.03-0.17,0.38-0.21
		C327.67,330.68,327.72,330.68,327.76,330.68z"/>
	<g>
		<g>
			<path class="st14" d="M303.17,153.25c0,0,4.45,55.37,7.69,82.69c3.37,28.42,14.47,82.94,14.47,82.94l16.11-0.34
				c0,0-4.42-61.9-6.13-90.26c-1.86-30.91-2.34-75.71-2.34-75.71L303.17,153.25z"/>
			<path class="st15" d="M303.17,153.25c0,0,4.45,55.37,7.69,82.69c3.37,28.42,14.47,82.94,14.47,82.94l16.11-0.34
				c0,0-4.42-61.9-6.13-90.26c-1.86-30.91-2.34-75.71-2.34-75.71L303.17,153.25z"/>
		</g>
		<g>
			<polygon class="st14" points="343.42,319.26 324.48,319.64 323.09,313.34 343.19,313.3 			"/>
		</g>
	</g>
	<path class="st12" d="M331.3,99.3l-7.45-6.17c0.49,4.82,4.85,16.63,7.15,22.61C330.94,110.52,331.01,104.99,331.3,99.3z"/>
	<path class="st11" d="M317.78,50.49c-1.14,6.55-2.16,18.53,2.5,22.79c0,0-1.36,5.93-13.77,7.95c-8.34-2.67-6.51-7.52-6.51-7.52
		c7.24-1.89,6.94-7.29,5.56-12.33L317.78,50.49z"/>
	<path class="st12" d="M312.8,54.93l-7.23,6.44c0.33,1.19,0.59,2.41,0.7,3.59c2.77-0.46,6.52-3.59,6.76-6.51
		C313.14,57,313.05,55.6,312.8,54.93z"/>
	<path class="st11" d="M321.75,42.41c-2.4,8.52-3.38,13.63-8.7,17.12c-8.01,5.24-17.81-1.02-18-10.09
		c-0.17-8.16,3.79-20.73,12.99-22.33C317.1,25.53,324.16,33.89,321.75,42.41z"/>
	<path class="st10" d="M316.63,47.63c-1.12-2.72-1.93-11.68,2.73-13.87c4.66-2.2,9.52,3.17,8.3,5.7
		C325.76,43.4,319.23,53.93,316.63,47.63z"/>
	<path class="st10" d="M319.41,36.91c-1.15-2.96-14.86-4.7-16.78-7.93c-2.28-3.85,7.08-4.3,13.5-2.35c5.65,1.72,9.42,3.37,8.76,7.58
		C324.52,36.59,319.41,36.91,319.41,36.91z"/>
	<path class="st10" d="M322.39,33.82c0,0,2.97,0.83,4.65-1.38C326.52,34.62,323.98,36.83,322.39,33.82z"/>
	<path class="st10" d="M308.67,24.58c-4.12-3.2-9.73,0.56-9.2,4.73c0.53,4.17,14.42,7.34,14.42,7.34S314.14,28.82,308.67,24.58z"/>
	<path class="st10" d="M299.48,29.37c0.63,2.92,2.76,5.21,7.07,6.9c-4.03-2.83-5.42-7.31-5.42-7.31L299.48,29.37z"/>
	<path class="st17" d="M333.45,112.26l14.92-13.53c0,0-5.8-21.75-14.14-23.56c-0.12-0.03-0.23-0.04-0.35-0.06c0,0,0,0,0-0.01
		c0,0-5.98-1.15-13.78-1.36c-6.1-0.16-14.93-0.17-20.28,0.43c-4.23,0.48-8.29,1.37-10.87,2.02c-2.33,0.33-4.94,1.37-7.72,3.21
		c-9.2,6.11-12.33,8.86-12.33,8.86l6.27,20.14c0,0,3.81-1.21,8.37-3.59c-0.12,12.21,0.69,28.54,3.72,49.24
		c14.37-0.31,38.52-0.87,45.52-1.02c0.12-4.88-2.24-22.46-1.96-43.89C332.37,111.12,333.45,112.26,333.45,112.26z"/>
	<path class="st11" d="M352.98,123.65l-0.61-2.73c-0.84-3.58-1.88-7.05-3.05-10.43c-1.14-3.4-1.58-6.36-3.4-9.54l-10.63,9.64
		c1.47,2.84,3.22,7.47,5.12,13.53l0.67,2.24c0.12,0.38,0.2,0.77,0.23,1.2c0.06,0.84-0.02,1.85-0.36,2.97
		c-0.67,2.23-2.16,4.77-4.02,7.14c-1.85,2.41-4.08,4.72-6.43,6.95c-1.19,1.1-2.39,2.22-3.65,3.28c-0.83,0.71-1.7,1.41-2.56,2.1
		l-9.05,0.09l-5.98,5.7l5.3,7.76l6.63-3.8c0,0,4.93-1.23,6.78-3.7c1.13-0.55,2.21-1.12,3.3-1.73c1.57-0.88,3.13-1.78,4.64-2.8
		c3.03-2,5.95-4.26,8.7-6.94c2.7-2.71,5.33-5.81,7.11-10c0.88-2.08,1.54-4.48,1.6-7.06C353.35,126.27,353.24,124.94,352.98,123.65z"
		/>
	<path class="st11" d="M324.37,50.21c-1.11,2.11-3.1,3.51-4.98,4.06c-2.83,0.83-4.28-1.7-3.52-4.39c0.68-2.42,2.98-5.77,5.84-5.42
		C324.52,44.82,325.65,47.8,324.37,50.21z"/>
	<path class="st2" d="M305.99,91.37l-8.13,16.08c-0.78,1.55,0.9,3.23,2.41,2.4l5.31-2.92c0.58-0.32,1.3-0.27,1.85,0.12l5.23,3.77
		c1.4,1.01,3.23-0.38,2.64-2.03l-6.11-17.18C308.67,90.15,306.68,90,305.99,91.37z"/>
</g>
<g id="Hello">
	
		<rect x="228.72" y="216.09" transform="matrix(0.9974 -0.0723 0.0723 0.9974 -15.0435 17.4856)" class="st13" width="10.69" height="1"/>
	
		<rect x="243.74" y="215.2" transform="matrix(0.9974 -0.0723 0.0723 0.9974 -14.9484 18.3741)" class="st13" width="5.25" height="1"/>
	<g id="speech">
		<path class="st18" d="M294.92,97.6l-176.51,12.77c-7.64,0.55-13.44,7.25-12.88,14.89l6.02,83.22c0.55,7.64,7.25,13.44,14.89,12.88
			l9.98-0.72c1.51-0.11,2.83,1.03,2.94,2.54l1.12,15.42c0.1,1.34,1.76,1.89,2.64,0.88l16.74-19.35c0.7-0.81,1.7-1.31,2.77-1.39
			l140.32-10.15c7.64-0.55,13.44-7.25,12.88-14.89l-6.02-83.22C309.26,102.84,302.56,97.04,294.92,97.6z"/>
		<path class="st19" d="M118.41,110.36c-7.64,0.55-13.44,7.25-12.88,14.89l6.02,83.22c0.55,7.64,7.25,13.44,14.89,12.88l1.47-0.11
			c5.02-0.36,9.17-4.05,10.12-9l20.1-104.77L118.41,110.36z"/>
	</g>
	<g>
		<path class="st2" d="M144.04,147.25l10.13-0.74c5.21-0.38,8.1,2.58,8.38,6.44c0.19,2.67-1.02,4.65-3.38,5.65
			c3.79,0.59,5.96,3.11,6.22,6.68c0.35,4.8-2.59,8.64-8.45,9.06l-10.86,0.79L144.04,147.25z M154.76,157.4
			c2.58-0.19,3.71-1.71,3.56-3.8c-0.15-2.09-1.45-3.44-4.15-3.24l-5.49,0.4l0.51,7.05L154.76,157.4z M156.41,170.55
			c3.36-0.24,4.82-2.33,4.61-5.12c-0.2-2.79-2.07-4.63-5.51-4.38l-6.07,0.44l0.69,9.51L156.41,170.55z"/>
		<path class="st2" d="M174.91,171.47l-8.19-15.15l4.59-0.33l4.23,8.35c0.67,1.27,1.24,3.5,1.24,3.5s0.2-2.28,0.68-3.64l3.06-8.88
			l4.3-0.31l-9.39,26.73l-4.26,0.31L174.91,171.47z"/>
		<path class="st2" d="M197.18,168.28c2.25-0.16,3.83-1.19,4.74-2.2l2.6,2.37c-1.48,1.72-3.61,3.07-7.05,3.32
			c-5.9,0.43-9.99-3.11-10.37-8.27c-0.37-5.12,3.36-9.27,8.53-9.65c5.86-0.43,9.5,3.68,9.65,9.72l-13.86,1.01
			C192.11,167.04,194.03,168.51,197.18,168.28z M200.9,161c-0.54-2.31-2.1-3.93-4.97-3.72c-2.66,0.19-4.4,1.8-4.71,4.42L200.9,161z"
			/>
		<path class="st2" d="M217.11,141.93l10.13-0.74c5.21-0.38,8.1,2.58,8.38,6.44c0.19,2.67-1.02,4.65-3.38,5.65
			c3.79,0.59,5.96,3.11,6.22,6.68c0.35,4.8-2.59,8.64-8.45,9.06l-10.86,0.79L217.11,141.93z M227.83,152.07
			c2.58-0.19,3.71-1.71,3.56-3.8c-0.15-2.09-1.45-3.44-4.15-3.24l-5.49,0.4l0.51,7.05L227.83,152.07z M229.48,165.23
			c3.36-0.24,4.82-2.33,4.61-5.12c-0.2-2.79-2.07-4.63-5.51-4.38l-6.07,0.44l0.69,9.51L229.48,165.23z"/>
		<path class="st2" d="M247.98,166.15L239.79,151l4.59-0.33l4.23,8.35c0.67,1.27,1.24,3.5,1.24,3.5s0.2-2.28,0.68-3.64l3.06-8.88
			l4.3-0.31l-9.39,26.73l-4.26,0.31L247.98,166.15z"/>
		<path class="st2" d="M270.25,162.96c2.25-0.16,3.83-1.19,4.74-2.2l2.6,2.37c-1.48,1.72-3.61,3.07-7.05,3.32
			c-5.9,0.43-9.99-3.11-10.37-8.27c-0.37-5.12,3.36-9.27,8.53-9.65c5.86-0.43,9.5,3.68,9.65,9.72l-13.86,1.01
			C265.18,161.72,267.1,163.19,270.25,162.96z M273.97,155.68c-0.54-2.31-2.1-3.93-4.97-3.72c-2.66,0.19-4.4,1.8-4.71,4.42
			L273.97,155.68z"/>
		<path class="st2" d="M281.45,137.25l4.67-0.34l0.71,19.32l-3.28,0.24L281.45,137.25z M282.84,162.62
			c-0.12-1.64,1.11-2.88,2.58-2.99c1.52-0.11,2.87,0.95,2.99,2.59c0.12,1.64-1.07,2.88-2.58,2.99
			C284.36,165.31,282.96,164.26,282.84,162.62z"/>
	</g>
</g>
<g id="Character_1">
	<g>
		<path class="st10" d="M115.96,82.92c-0.05,1.81,0.08,3.32,0.23,4.38c-11.74,4.05-22.63,3.15-28.15,2.23
			c0.27-0.98,0.68-2.82,0.82-5.23c-0.18,1.71-1.15,3.78-1.83,5.07c-1.78-0.34-2.77-0.63-2.77-0.63s1.81-9.85-1.46-17
			c-3.27-7.16-1.65-11.15,0.83-12.29c4.61-14.14,21.89-11.9,27.74-6.17c7.42,7.28,7.46,27.79,8.78,32.48
			c-1.08,0.47-2.15,0.91-3.23,1.29C116.45,85.79,115.99,84.23,115.96,82.92z"/>
		<path class="st20" d="M123.11,104.94l0.9,2.85c0.32,0.98,0.66,1.96,1.01,2.95c0.67,1.98,1.37,3.95,2.11,5.92
			c0.76,1.96,1.47,3.94,2.26,5.91l1.16,2.95l0.29,0.74l0.07,0.17l0.01,0.03c0,0.03,0,0.03,0,0.03c0,0-0.2-0.18-0.42-0.26
			c-0.22-0.08-0.31-0.01-0.18-0.01c0.12,0.01,0.39-0.02,0.71-0.11c0.64-0.18,1.45-0.56,2.24-1c1.63-0.89,3.26-2.11,4.88-3.35
			c1.62-1.26,3.21-2.61,4.77-4.02c1.58-1.37,3.13-2.84,4.64-4.26l3.07,2.59c-1.28,1.84-2.64,3.52-4.03,5.23
			c-1.43,1.67-2.91,3.31-4.5,4.9c-1.59,1.6-3.29,3.1-5.28,4.51c-1.02,0.69-2.1,1.36-3.48,1.9c-0.69,0.27-1.47,0.51-2.41,0.62
			c-0.93,0.11-2.12,0.07-3.32-0.45c-1.21-0.49-2.22-1.45-2.8-2.34c-0.15-0.23-0.29-0.45-0.4-0.67l-0.27-0.53l-0.36-0.73
			c-0.48-0.98-0.96-1.95-1.41-2.94c-0.91-1.98-1.82-3.96-2.65-5.98c-0.84-2.02-1.64-4.06-2.41-6.12c-0.37-1.04-0.72-2.08-1.07-3.14
			c-0.35-1.08-0.66-2.08-0.98-3.3L123.11,104.94z"/>
		<path class="st13" d="M120.75,96.06c3.45,0.88,5.86,15.06,5.86,15.06l-9.5,6.46c0,0-9.11-14.31-6.45-18.1
			C113.41,95.53,115.72,94.77,120.75,96.06z"/>
		<g>
			<path class="st21" d="M120.75,96.06c3.45,0.88,5.86,15.06,5.86,15.06l-9.5,6.46c0,0-9.11-14.31-6.45-18.1
				C113.41,95.53,115.72,94.77,120.75,96.06z"/>
			<path class="st22" d="M120.75,96.06c3.45,0.88,5.86,15.06,5.86,15.06l-9.5,6.46c0,0-9.11-14.31-6.45-18.1
				C113.41,95.53,115.72,94.77,120.75,96.06z"/>
		</g>
		<polygon class="st23" points="120.44,99.22 123.08,113.52 117.74,117.14 		"/>
		<path class="st20" d="M147.39,113.84l3.17-7.63l3.91,7.63c0,0-2.54,3.8-5.89,2.87L147.39,113.84z"/>
		<polygon class="st20" points="154.05,105.41 159.08,107.44 154.47,113.84 150.56,106.21 		"/>
		<polygon class="st20" points="102.1,334.77 110.46,334.77 111.02,315.41 102.66,315.41 		"/>
		<polygon class="st20" points="45.97,309.83 53.67,313.11 63.73,296.34 56.04,293.07 		"/>
		<path class="st10" d="M55.14,311.97l-8-4.92c-0.29-0.18-0.65-0.12-0.87,0.14l-4.8,5.77c-0.5,0.6-0.32,1.57,0.36,1.97
			c2.82,1.67,4.27,2.33,7.79,4.49c2.17,1.33,5.19,3.5,8.18,5.34c2.92,1.8,4.97-1.02,3.89-2.05c-4.85-4.63-4.71-6.83-5.62-9.57
			C55.9,312.64,55.57,312.23,55.14,311.97z"/>
		<path class="st10" d="M110.75,333.81h-9.39c-0.34,0-0.62,0.24-0.67,0.57l-1.07,7.43c-0.11,0.77,0.55,1.5,1.34,1.49
			c3.28-0.06,4.85-0.25,8.99-0.25c2.54,0,7.8,0.26,11.31,0.26c3.43,0,3.7-3.47,2.24-3.78c-6.55-1.41-9.13-3.35-11.34-5.21
			C111.75,333.99,111.25,333.81,110.75,333.81z"/>
		<g>
			<polygon class="st12" points="111.02,315.41 110.73,325.4 102.37,325.4 102.65,315.41 			"/>
			<polygon class="st12" points="56.03,293.07 63.73,296.35 58.54,304.99 50.84,301.71 			"/>
		</g>
		<g>
			<path class="st21" d="M120.75,96.06c0,0,3.98,1.4-4,50.47c-13.48,0-27.4,0-33.96,0c0.57-13.82,0.59-22.35-6.02-50.71
				c0,0,7.12-1.55,14.42-1.9c5.72-0.28,10.4-0.46,15.42,0C113.23,94.52,120.75,96.06,120.75,96.06z"/>
			<path class="st22" d="M120.75,96.06c0,0,3.98,1.4-4,50.47c-13.48,0-27.4,0-33.96,0c0.57-13.82,0.59-22.35-6.02-50.71
				c0,0,7.12-1.55,14.42-1.9c5.72-0.28,10.4-0.46,15.42,0C113.23,94.52,120.75,96.06,120.75,96.06z"/>
		</g>
		<path class="st2" d="M91.19,93.91c5.72-0.27,10.39-0.45,15.43,0.01c0.83,0.07,1.68,0.17,2.52,0.27c0.56,0.97,0.99,2.27,0.46,3.61
			c-1.08,2.69-4.98,3.01-7.83,3.01c-10.51,0-12.29-6.14-12.36-6.4l-0.1-0.37C89.93,93.98,90.56,93.94,91.19,93.91z"/>
		<path class="st20" d="M92.72,76.55c0.97,4.96,1.94,14.05-1.53,17.36c0,0,1.36,5.03,10.58,5.03c10.14,0,4.85-5.03,4.85-5.03
			c-5.53-1.32-5.39-5.43-4.43-9.28L92.72,76.55z"/>
		<path class="st10" d="M93.73,73.02c-1.19,3.93,0.45,13.23,2.91,16.83c-4.83-2.77-6.46-11.21-6.46-11.21L93.73,73.02z"/>
		<path class="st12" d="M96.58,79.85l5.6,4.78c-0.23,0.91-0.41,1.84-0.48,2.74c-2.11-0.31-5.02-2.63-5.24-4.84
			C96.35,81.42,96.4,80.36,96.58,79.85z"/>
		<path class="st20" d="M88.14,67.68c1.94,8.07,2.58,11.53,7.44,14.99c7.31,5.21,16.79,1.07,17.31-7.42
			c0.46-7.64-2.78-19.55-11.34-21.4C93.12,52.05,86.2,59.61,88.14,67.68z"/>
		<g>
			<path class="st13" d="M116.75,146.53c0,0,6.6,64.42,6.05,89.92c-0.57,26.52-10.29,87.02-10.29,87.02H101.2
				c0,0,1.79-58.95,0.79-85c-1.09-28.4-10.11-91.94-10.11-91.94H116.75z"/>
			<path class="st24" d="M116.75,146.53c0,0,6.6,64.42,6.05,89.92c-0.57,26.52-10.29,87.02-10.29,87.02H101.2
				c0,0,1.79-58.95,0.79-85c-1.09-28.4-10.11-91.94-10.11-91.94H116.75z"/>
		</g>
		<polygon class="st13" points="100.22,323.87 113.49,323.87 114.46,319.64 99.6,319.12 		"/>
		<path class="st12" d="M102.1,162.55c8.34,16.78,1.67,47.39-1.27,58.78c-1.51-17.1-4.06-38.01-6.05-53.37
			C96.04,159.28,98.25,154.82,102.1,162.55z"/>
		<g>
			<path class="st13" d="M107.78,146.53c0,0-7.69,66.97-13.5,88.47c-6.9,25.53-33.12,69-33.12,69l-10.49-4.47
				c0,0,16.24-49.36,21.51-62.8c11.26-28.7,1.62-71.47,10.62-90.2H107.78z"/>
			<path class="st24" d="M107.78,146.53c0,0-7.69,66.97-13.5,88.47c-6.9,25.53-33.12,69-33.12,69l-10.49-4.47
				c0,0,16.24-49.36,21.51-62.8c11.26-28.7,1.62-71.47,10.62-90.2H107.78z"/>
		</g>
		<polygon class="st13" points="49.22,299.56 62.24,305.11 65.36,301.61 50.35,294.4 		"/>
		<path class="st10" d="M90.96,62.95c0.17,2.44,1,6.33,1,6.33s5.01-6.32,5.83-9.71c-0.51,2.72-1.14,3.85-1.14,3.85
			s6.73-1.46,7.39-5.91c-0.06,3.62-0.66,5.91-0.66,5.91s6.42-2.52,5.83-6.78c-0.59-4.26-10.45-5.91-14.98-4.47
			c-4.52,1.44-8.99,6.12-7.66,12.54c1.33,6.42,3.9,8.83,3.9,8.83S88.6,67.06,90.96,62.95z"/>
		<path class="st20" d="M87.79,73.77c0.65,1.59,1.97,2.74,3.28,3.27c1.97,0.8,3.19-0.91,2.84-2.89c-0.32-1.79-1.72-4.35-3.8-4.3
			C88.07,69.89,87.05,71.94,87.79,73.77z"/>
		<path class="st10" d="M92.18,59.88c-1,3.98,1.08,13.19,3.7,16.67c-4.96-2.53-6.99-10.89-6.99-10.89L92.18,59.88z"/>
		<path class="st20" d="M80.89,107.68c-1.39,4.39-2.71,9.01-3.84,13.54c-1.08,4.55-2.06,9.15-2.49,13.63l-0.08,0.84
			c-0.02,0.27-0.03,0.33-0.03,0.57c0,0.41,0.03,0.9,0.1,1.41c0.12,1.03,0.32,2.14,0.55,3.26c0.48,2.24,1.05,4.53,1.68,6.82
			c0.6,2.3,1.26,4.6,1.95,6.89l2.03,6.91l-3.72,1.53c-2.28-4.36-4.26-8.8-6.11-13.38c-0.89-2.3-1.76-4.62-2.48-7.07
			c-0.36-1.23-0.7-2.47-0.97-3.83c-0.13-0.67-0.24-1.39-0.3-2.19c-0.03-0.37-0.04-0.91-0.03-1.24l0.03-0.97
			c0.07-2.59,0.34-5.11,0.7-7.6c0.33-2.5,0.82-4.94,1.35-7.38c1.06-4.88,2.34-9.59,3.99-14.37L80.89,107.68z"/>
		<g>
			<path class="st21" d="M76.77,95.81c-3.4,1.03-7.49,12.75-7.49,12.75l13.2,9.44c0,0,4.81-9.78,3.38-14.18
				C84.37,99.24,80.65,94.63,76.77,95.81z"/>
			<path class="st22" d="M76.77,95.81c-3.4,1.03-7.49,12.75-7.49,12.75l13.2,9.44c0,0,4.81-9.78,3.38-14.18
				C84.37,99.24,80.65,94.63,76.77,95.81z"/>
		</g>
		<path class="st13" d="M58.52,315.14c0.31-0.1,0.55-0.33,0.71-0.69c0.13-0.31,0.05-0.54-0.04-0.68c-0.6-0.88-3.62-0.82-3.96-0.81
			c-0.08,0-0.15,0.05-0.18,0.13c-0.03,0.07-0.01,0.16,0.04,0.21c0.79,0.79,2.27,2.07,3.31,1.87
			C58.44,315.16,58.48,315.15,58.52,315.14z M55.72,313.35c1.21,0.01,2.83,0.17,3.14,0.64c0.04,0.06,0.08,0.15,0.01,0.3
			c-0.13,0.29-0.3,0.45-0.54,0.49C57.77,314.89,56.81,314.36,55.72,313.35z"/>
		<path class="st13" d="M56.61,313.11c0.92-0.29,1.9-0.79,2.11-1.36c0.06-0.17,0.11-0.51-0.28-0.82c-0.25-0.2-0.53-0.27-0.85-0.21
			c-1.19,0.21-2.47,2.26-2.52,2.34c-0.04,0.06-0.04,0.13-0.01,0.2c0.03,0.06,0.1,0.1,0.17,0.1
			C55.56,313.37,56.07,313.28,56.61,313.11z M57.53,311.13c0.04-0.01,0.08-0.02,0.12-0.03c0.2-0.04,0.38,0.01,0.54,0.13
			c0.2,0.16,0.19,0.28,0.15,0.37c-0.2,0.55-1.72,1.21-2.73,1.33C56.05,312.32,56.84,311.35,57.53,311.13z"/>
		<path class="st13" d="M113.89,335.27c0.83,0,1.6-0.13,2.03-0.51c0.27-0.25,0.39-0.57,0.36-0.96c-0.02-0.24-0.14-0.42-0.34-0.53
			c-1.02-0.56-4.36,1.14-4.73,1.34c-0.07,0.04-0.12,0.12-0.1,0.2c0.01,0.08,0.08,0.15,0.16,0.17
			C111.97,335.11,112.97,335.27,113.89,335.27z M115.38,333.54c0.15,0,0.28,0.02,0.37,0.07c0.08,0.04,0.12,0.11,0.13,0.21
			c0.02,0.27-0.05,0.47-0.23,0.63c-0.51,0.46-1.88,0.54-3.74,0.23C113.06,334.14,114.59,333.54,115.38,333.54z"/>
		<path class="st13" d="M111.29,334.97c0.03,0,0.06-0.01,0.08-0.02c1-0.45,2.97-2.25,2.81-3.2c-0.04-0.22-0.2-0.5-0.74-0.56
			c-0.41-0.04-0.78,0.07-1.1,0.34c-1.05,0.88-1.24,3.13-1.25,3.22c-0.01,0.07,0.03,0.14,0.08,0.18
			C111.21,334.96,111.25,334.97,111.29,334.97z M113.29,331.58c0.04,0,0.08,0,0.12,0.01c0.36,0.04,0.39,0.18,0.39,0.23
			c0.09,0.57-1.25,1.99-2.26,2.6c0.1-0.66,0.38-2.01,1.07-2.58C112.81,331.67,113.04,331.58,113.29,331.58z"/>
		<g>
			<path class="st10" d="M82.28,144.53l-0.87,3.04c-0.12,0.24,0.16,0.48,0.55,0.48h34.95c0.31,0,0.56-0.15,0.58-0.34l0.31-3.04
				c0.02-0.21-0.24-0.39-0.58-0.39H82.83C82.58,144.28,82.36,144.38,82.28,144.53z"/>
		</g>
		<g>
			<path class="st13" d="M86.9,148.38h-0.92c-0.18,0-0.32-0.09-0.31-0.21l0.43-3.95c0.01-0.12,0.17-0.21,0.36-0.21h0.92
				c0.18,0,0.32,0.09,0.31,0.21l-0.43,3.95C87.24,148.28,87.08,148.38,86.9,148.38z"/>
			<path class="st24" d="M86.9,148.38h-0.92c-0.18,0-0.32-0.09-0.31-0.21l0.43-3.95c0.01-0.12,0.17-0.21,0.36-0.21h0.92
				c0.18,0,0.32,0.09,0.31,0.21l-0.43,3.95C87.24,148.28,87.08,148.38,86.9,148.38z"/>
		</g>
		<g>
			<path class="st13" d="M114.33,148.38h-0.92c-0.18,0-0.32-0.09-0.31-0.21l0.43-3.95c0.01-0.12,0.17-0.21,0.36-0.21h0.92
				c0.18,0,0.32,0.09,0.31,0.21l-0.43,3.95C114.67,148.28,114.51,148.38,114.33,148.38z"/>
			<path class="st24" d="M114.33,148.38h-0.92c-0.18,0-0.32-0.09-0.31-0.21l0.43-3.95c0.01-0.12,0.17-0.21,0.36-0.21h0.92
				c0.18,0,0.32,0.09,0.31,0.21l-0.43,3.95C114.67,148.28,114.51,148.38,114.33,148.38z"/>
		</g>
		<g>
			<path class="st13" d="M100.61,148.38h-0.92c-0.18,0-0.32-0.09-0.31-0.21l0.43-3.95c0.01-0.12,0.17-0.21,0.36-0.21h0.92
				c0.18,0,0.32,0.09,0.31,0.21l-0.43,3.95C100.96,148.28,100.8,148.38,100.61,148.38z"/>
			<path class="st24" d="M100.61,148.38h-0.92c-0.18,0-0.32-0.09-0.31-0.21l0.43-3.95c0.01-0.12,0.17-0.21,0.36-0.21h0.92
				c0.18,0,0.32,0.09,0.31,0.21l-0.43,3.95C100.96,148.28,100.8,148.38,100.61,148.38z"/>
		</g>
		<path class="st20" d="M80.48,160.42l7.17,5.5l-8.31,1.82c0,0-3.54-4.04-2.31-7.29L80.48,160.42z"/>
		<polygon class="st20" points="89.4,172.73 82.36,173.88 78.52,166.65 87.64,165.92 		"/>
	</g>
</g>
</svg>
