<svg xmlns="http://www.w3.org/2000/svg" viewBox="0 0 744 24" width="744" height="24"><g fill="none" stroke="#7383c6" stroke-linecap="round" stroke-miterlimit="10"><path d="M4.61 6.72h14.78"/><path d="M9.83 6.05h4.34" stroke-width="2"/><path d="M12 7.93h6L16.2 20.9H7.8L6 7.93h6m0 2.77v10.2M8.8 10.7l1.4 9.7m5-9.7l-1.4 10.2"/></g><g fill="none" stroke="#7383c6" stroke-linecap="round" stroke-miterlimit="10"><path d="M28.61 6.72h14.78"/><path d="M33.83 6.05h4.34" stroke-width="2"/><path d="M36 7.93h6L40.2 20.9h-8.4L30 7.93h6m0 2.77v10.2m-3.2-10.2l1.4 9.7m5-9.7l-1.4 10.2"/></g><g fill="none" stroke="#7383c6" stroke-linecap="round" stroke-miterlimit="10"><path d="M52.61 6.72l14.78-.002"/><path d="M57.83 6.049h4.34" stroke-width="2"/><path d="M60 7.93h6L64.2 20.9h-8.4L54 7.93h6m0 2.77v10.2m-3.2-10.2l1.4 9.7m5-9.7l-1.4 10.2"/></g><g fill="none" stroke="#7383c6" stroke-linecap="round" stroke-miterlimit="10"><path d="M76.612 6.718l14.776-.026"/><path d="M81.83 6.039l4.339-.008" stroke-width="2"/><path d="M84 7.93h6L88.2 20.9h-8.4L78 7.93h6m0 2.77v10.2m-3.2-10.2l1.4 9.7m5-9.7l-1.4 10.2"/></g><g fill="none" stroke="#7383c6" stroke-linecap="round" stroke-miterlimit="10"><path d="M100.617 6.714l14.766-.085"/><path d="M105.83 6.015l4.336-.025" stroke-width="2"/><path d="M108 7.93h6l-1.8 12.97h-8.4L102 7.93h6m0 2.77v10.2m-3.2-10.2l1.4 9.7m5-9.7l-1.4 10.2"/></g><g fill="none" stroke="#7383c6" stroke-linecap="round" stroke-miterlimit="10"><path d="M124.626 6.707l14.748-.186"/><path d="M129.83 5.973l4.331-.055" stroke-width="2"/><path d="M132 7.93h6l-1.8 12.97h-8.4L126 7.93h6m0 2.77v10.2m-3.2-10.2l1.4 9.7m5-9.7l-1.4 10.2"/></g><g fill="none" stroke="#7383c6" stroke-linecap="round" stroke-miterlimit="10"><path d="M148.639 6.697l14.722-.343"/><path d="M153.831 5.908l4.323-.1" stroke-width="2"/><path d="M156 7.93h6l-1.8 12.97h-8.4L150 7.93h6m0 2.77v10.2m-3.2-10.2l1.4 9.7m5-9.7l-1.4 10.2"/></g><g fill="none" stroke="#7383c6" stroke-linecap="round" stroke-miterlimit="10"><path d="M172.658 6.681l14.684-.567"/><path d="M177.831 5.815l4.312-.166" stroke-width="2"/><path d="M180 7.93h6l-1.8 12.97h-8.4L174 7.93h6m0 2.77v10.2m-3.2-10.2l1.4 9.7m5-9.7l-1.4 10.2"/></g><g fill="none" stroke="#7383c6" stroke-linecap="round" stroke-miterlimit="10"><path d="M196.684 6.66l14.632-.875"/><path d="M201.832 5.687l4.297-.256" stroke-width="2"/><path d="M204 7.93h6l-1.8 12.97h-8.4L198 7.93h6m0 2.77v10.2m-3.2-10.2l1.4 9.7m5-9.7l-1.4 10.2"/></g><g fill="none" stroke="#7383c6" stroke-linecap="round" stroke-miterlimit="10"><path d="M220.717 6.634l14.566-1.267"/><path d="M225.833 5.525l4.277-.371" stroke-width="2"/><path d="M228 7.93h6l-1.8 12.97h-8.4L222 7.93h6m0 2.77v10.2m-3.2-10.2l1.4 9.7m5-9.7l-1.4 10.2"/></g><g fill="none" stroke="#7383c6" stroke-linecap="round" stroke-miterlimit="10"><path d="M244.755 6.603l14.49-1.719"/><path d="M249.834 5.338l4.254-.504" stroke-width="2"/><path d="M252 7.93h6l-1.8 12.97h-8.4L246 7.93h6m0 2.77v10.2m-3.2-10.2l1.4 9.7m5-9.7l-1.4 10.2"/></g><g fill="none" stroke="#7383c6" stroke-linecap="round" stroke-miterlimit="10"><path d="M268.794 6.572l14.412-2.182"/><path d="M273.834 5.146l4.233-.639" stroke-width="2"/><path d="M276 7.93h6l-1.8 12.97h-8.4L270 7.93h6m0 2.77v10.2m-3.2-10.2l1.4 9.7m5-9.7l-1.4 10.2"/></g><g fill="none" stroke="#7383c6" stroke-linecap="round" stroke-miterlimit="10"><path d="M292.831 6.542l14.338-2.61"/><path d="M297.835 4.968l4.211-.764" stroke-width="2"/><path d="M300 7.93h6l-1.8 12.97h-8.4L294 7.93h6m0 2.77v10.2m-3.2-10.2l1.4 9.7m5-9.7l-1.4 10.2"/></g><g fill="none" stroke="#7383c6" stroke-linecap="round" stroke-miterlimit="10"><path d="M316.862 6.517l14.276-2.986"/><path d="M321.836 4.813l4.192-.875" stroke-width="2"/><path d="M324 7.93h6l-1.8 12.97h-8.4L318 7.93h6m0 2.77v10.2m-3.2-10.2l1.4 9.7m5-9.7l-1.4 10.2"/></g><g fill="none" stroke="#7383c6" stroke-linecap="round" stroke-miterlimit="10"><path d="M340.889 6.495l14.222-3.305"/><path d="M345.837 4.68l4.176-.967" stroke-width="2"/><path d="M348 7.93h6l-1.8 12.97h-8.4L342 7.93h6m0 2.77v10.2m-3.2-10.2l1.4 9.7m5-9.7l-1.4 10.2"/></g><g fill="none" stroke="#7383c6" stroke-linecap="round" stroke-miterlimit="10"><path d="M364.912 6.477l14.176-3.575"/><path d="M369.837 4.569L374 3.522" stroke-width="2"/><path d="M372 7.93h6l-1.8 12.97h-8.4L366 7.93h6m0 2.77v10.2m-3.2-10.2l1.4 9.7m5-9.7l-1.4 10.2"/></g><g fill="none" stroke="#7383c6" stroke-linecap="round" stroke-miterlimit="10"><path d="M388.931 6.461l14.138-3.801"/><path d="M393.838 4.474l4.152-1.113" stroke-width="2"/><path d="M396 7.93h6l-1.8 12.97h-8.4L390 7.93h6m0 2.77v10.2m-3.2-10.2l1.4 9.7m5-9.7l-1.4 10.2"/></g><g fill="none" stroke="#7383c6" stroke-linecap="round" stroke-miterlimit="10"><path d="M412.948 6.448l14.104-3.994"/><path d="M417.838 4.395l4.143-1.17" stroke-width="2"/><path d="M420 7.93h6l-1.8 12.97h-8.4L414 7.93h6m0 2.77v10.2m-3.2-10.2l1.4 9.7m5-9.7l-1.4 10.2"/></g><g fill="none" stroke="#7383c6" stroke-linecap="round" stroke-miterlimit="10"><path d="M436.961 6.437l14.078-4.156"/><path d="M441.839 4.327l4.134-1.217" stroke-width="2"/><path d="M444 7.93h6l-1.8 12.97h-8.4L438 7.93h6m0 2.77v10.2m-3.2-10.2l1.4 9.7m5-9.7l-1.4 10.2"/></g><g fill="none" stroke="#7383c6" stroke-linecap="round" stroke-miterlimit="10"><path d="M460.973 6.428l14.054-4.295"/><path d="M465.839 4.27l4.127-1.257" stroke-width="2"/><path d="M468 7.93h6l-1.8 12.97h-8.4L462 7.93h6m0 2.77v10.2m-3.2-10.2l1.4 9.7m5-9.7l-1.4 10.2"/></g><g fill="none" stroke="#7383c6" stroke-linecap="round" stroke-miterlimit="10"><path d="M484.983 6.42l14.034-4.411"/><path d="M489.839 4.222l4.122-1.291" stroke-width="2"/><path d="M492 7.93h6l-1.8 12.97h-8.4L486 7.93h6m0 2.77v10.2m-3.2-10.2l1.4 9.7m5-9.7l-1.4 10.2"/></g><g fill="none" stroke="#7383c6" stroke-linecap="round" stroke-miterlimit="10"><path d="M508.991 6.413l14.018-4.509"/><path d="M513.839 4.181l4.117-1.32" stroke-width="2"/><path d="M516 7.93h6l-1.8 12.97h-8.4L510 7.93h6m0 2.77v10.2m-3.2-10.2l1.4 9.7m5-9.7l-1.4 10.2"/></g><g fill="none" stroke="#7383c6" stroke-linecap="round" stroke-miterlimit="10"><path d="M532.998 6.408l14.004-4.591"/><path d="M537.839 4.147l4.113-1.344" stroke-width="2"/><path d="M540 7.93h6l-1.8 12.97h-8.4L534 7.93h6m0 2.77v10.2m-3.2-10.2l1.4 9.7m5-9.7l-1.4 10.2"/></g><g fill="none" stroke="#7383c6" stroke-linecap="round" stroke-miterlimit="10"><path d="M557.004 6.403l13.992-4.659"/><path d="M561.84 4.119l4.109-1.364" stroke-width="2"/><path d="M564 7.93h6l-1.8 12.97h-8.4L558 7.93h6m0 2.77v10.2m-3.2-10.2l1.4 9.7m5-9.7l-1.4 10.2"/></g><g fill="none" stroke="#7383c6" stroke-linecap="round" stroke-miterlimit="10"><path d="M581.009 6.399l13.982-4.714"/><path d="M585.84 4.096l4.106-1.38" stroke-width="2"/><path d="M588 7.93h6l-1.8 12.97h-8.4L582 7.93h6m0 2.77v10.2m-3.2-10.2l1.4 9.7m5-9.7l-1.4 10.2"/></g><g fill="none" stroke="#7383c6" stroke-linecap="round" stroke-miterlimit="10"><path d="M605.012 6.396l13.976-4.759"/><path d="M609.84 4.078l4.104-1.394" stroke-width="2"/><path d="M612 7.93h6l-1.8 12.97h-8.4L606 7.93h6m0 2.77v10.2m-3.2-10.2l1.4 9.7m5-9.7l-1.4 10.2"/></g><g fill="none" stroke="#7383c6" stroke-linecap="round" stroke-miterlimit="10"><path d="M629.015 6.394l13.97-4.794"/><path d="M633.84 4.063l4.103-1.403" stroke-width="2"/><path d="M636 7.93h6l-1.8 12.97h-8.4L630 7.93h6m0 2.77v10.2m-3.2-10.2l1.4 9.7m5-9.7l-1.4 10.2"/></g><g fill="none" stroke="#7383c6" stroke-linecap="round" stroke-miterlimit="10"><path d="M653.017 6.392l13.966-4.819"/><path d="M657.84 4.053l4.101-1.411" stroke-width="2"/><path d="M660 7.93h6l-1.8 12.97h-8.4L654 7.93h6m0 2.77v10.2m-3.2-10.2l1.4 9.7m5-9.7l-1.4 10.2"/></g><g fill="none" stroke="#7383c6" stroke-linecap="round" stroke-miterlimit="10"><path d="M677.019 6.391l13.962-4.837"/><path d="M681.84 4.045l4.101-1.416" stroke-width="2"/><path d="M684 7.93h6l-1.8 12.97h-8.4L678 7.93h6m0 2.77v10.2m-3.2-10.2l1.4 9.7m5-9.7l-1.4 10.2"/></g><g fill="none" stroke="#7383c6" stroke-linecap="round" stroke-miterlimit="10"><path d="M701.02 6.39l13.96-4.847"/><path d="M705.84 4.041l4.1-1.419" stroke-width="2"/><path d="M708 7.93h6l-1.8 12.97h-8.4L702 7.93h6m0 2.77v10.2m-3.2-10.2l1.4 9.7m5-9.7l-1.4 10.2"/></g><g fill="none" stroke="#7383c6" stroke-linecap="round" stroke-miterlimit="10"><path d="M725.02 6.39l13.96-4.85"/><path d="M729.84 4.04l4.1-1.42" stroke-width="2"/><path d="M732 7.93h6l-1.8 12.97h-8.4L726 7.93h6m0 2.77v10.2m-3.2-10.2l1.4 9.7m5-9.7l-1.4 10.2"/></g></svg>